<svg width="40" height="40" fill="none" xmlns="http://www.w3.org/2000/svg"><g clip-path="url(#clip0_1_162)"><path d="M39.405 7.952c-.201-.485-.67-.8-1.196-.8h-1.04a34.5 34.5 0 01-4.817-.338.586.586 0 00-.164 1.16c1.645.233 3.32.35 4.982.35h1.039c.02 0 .082 0 .113.077a.113.113 0 01-.026.134l-.822.822a2.55 2.55 0 01-1.816.752h-.754c-.998 0-1.938.389-2.644 1.095a2.55 2.55 0 01-1.815.752H28.91c-.503 0-1.006.104-1.469.3a3.325 3.325 0 00-2.107-.398 2.827 2.827 0 00-1.49.71c-.462.424-.723.97-.735 1.538l.003.129h-1.408V8.41l.013-.01a6.577 6.577 0 016.023-1.346c.69.19 1.393.36 2.092.507a.587.587 0 00.242-1.147 34.623 34.623 0 01-2.024-.49 7.747 7.747 0 00-6.346 1.02V5.787a3.12 3.12 0 001.439-2.643A3.147 3.147 0 0020 0a3.147 3.147 0 00-3.143 3.144c0 1.081.54 2.06 1.43 2.637V6.94a7.777 7.777 0 00-6.338-1.015A34.45 34.45 0 012.83 7.153H1.79c-.525 0-.995.314-1.196.8-.2.485-.09 1.039.281 1.41l.822.822a3.715 3.715 0 002.644 1.096h.754c.686 0 1.33.267 1.815.752a3.715 3.715 0 002.645 1.095h.59a4.026 4.026 0 00-.896.748c-.735.827-1.12 1.794-1.113 2.796a4.057 4.057 0 001.36 2.976c.726.637 1.62.964 2.474 1.244a.587.587 0 10.365-1.114c-.738-.242-1.506-.52-2.065-1.01a2.869 2.869 0 01-.962-2.105c-.005-.707.277-1.402.817-2.009.238-.267.536-.491.91-.684.267-.137.548-.24.845-.348.162-.06.33-.12.5-.19.653-.263 1.415-.516 2.117-.39.54.096 1.128.538 1.135 1.084.005.33-.214.683-.544.878-.33.194-.778.254-1.231.164a6.015 6.015 0 01-.527-.14c-.518-.155-1.104-.33-1.73-.144-.57.17-1.013.646-1.184 1.275-.171.63-.032 1.265.373 1.7.374.4.884.58 1.257.711 2.013.71 4.064 1.393 6.103 2.036-.477.166-.967.356-1.435.605l-2.04-.672a.586.586 0 10-.365 1.114l1.216.4c-1.066 1.017-1.588 2.468-1.475 4.134.106 1.557 1.015 2.951 2.627 4.032-.345.271-.674.57-.973.905-.943 1.056-1.422 2.348-1.315 3.544.131 1.468 1.19 2.712 2.515 2.958a.585.585 0 00.672-.729c-.282-1.051-.508-2.064-.162-2.898.177-.426.494-.779.873-1.08v5.372A1.71 1.71 0 0019.995 40a1.71 1.71 0 001.709-1.709v-5.278c.376.327.637.668.789 1.032.383.92.09 2.057-.163 2.834a.586.586 0 00.642.761c1.39-.204 2.5-1.52 2.58-3.062.064-1.224-.49-2.534-1.521-3.594a8.102 8.102 0 00-.893-.787c.802-.555 1.513-1.219 2.029-2.093.197-.334.356-.695.473-1.074.42-1.364.253-2.853-.449-3.982a4.793 4.793 0 00-.797-.968l3.552-1.17c.716-.237 1.528-.504 2.212-1.018 1.218-.913 1.84-2.531 1.545-4.025a4.102 4.102 0 00-1.143-2.097 4.164 4.164 0 00-.84-.642h.724a3.72 3.72 0 002.644-1.095 2.551 2.551 0 011.816-.752h.753c1 0 1.938-.39 2.645-1.096l.822-.821c.371-.372.481-.926.28-1.412zm-15.863 7.454c.234.319.553.587.93.763.673.313 1.495.344 2.316.087a8.3 8.3 0 00.326-.111c.267-.096.52-.186.725-.17a.67.67 0 01.558.479.767.767 0 01-.253.752c-.181.15-.46.241-.728.33l-5.711 1.89v-4.02h1.837zM18.03 3.144c0-1.087.884-1.972 1.971-1.972a1.974 1.974 0 01.862 3.746.586.586 0 00-.33.527v14.369l-1.1.364A.585.585 0 0019.46 20V5.44a.586.586 0 00-.327-.525 1.961 1.961 0 01-1.103-1.77zm-3.326 8.744c-.824-.147-1.624.04-2.333.294a3.72 3.72 0 00-1.28-.226H9.555a2.551 2.551 0 01-1.816-.752 3.715 3.715 0 00-2.644-1.095h-.754a2.55 2.55 0 01-1.816-.752l-.821-.822a.113.113 0 01-.027-.134c.031-.076.093-.076.114-.076H2.83c3.185 0 6.357-.428 9.428-1.27a6.6 6.6 0 015.884 1.229.583.583 0 00.144.085v5.866h-1.485c.002-.042.003-.083.003-.125-.016-1.203-1.095-2.043-2.102-2.222zm-3.055 5.172c-.15-.16-.15-.411-.1-.592.049-.182.177-.398.387-.46.291-.087.648.02 1.062.143.203.06.412.122.632.166.743.148 1.473.04 2.056-.304.267-.158.496-.367.677-.607h1.925v4.015a194.865 194.865 0 01-5.851-1.956c-.287-.1-.611-.215-.788-.405zm8.348 21.768a.537.537 0 01-.537-.537v-6.104a2.75 2.75 0 01.024-.013c.33-.172.676-.343 1.012-.509l.038-.018v6.644a.538.538 0 01-.537.537zm3.196-7.027c.803.826 1.238 1.816 1.19 2.716a2.288 2.288 0 01-.607 1.42c.122-.742.124-1.568-.2-2.343-.32-.768-.933-1.434-1.87-2.036v-.505c.119-.063.237-.127.355-.192.455.316.82.62 1.132.94zm1.005-8.134c.525.845.646 1.973.324 3.018-.09.291-.212.568-.363.824-.866 1.469-2.552 2.3-4.182 3.106a50.05 50.05 0 00-1.035.52c-1.014.529-2.117 1.23-2.609 2.416-.315.76-.31 1.564-.179 2.363a2.313 2.313 0 01-.596-1.35c-.078-.875.294-1.845 1.022-2.66.71-.796 1.66-1.377 2.58-1.886.199-.11.398-.217.598-.325.806-.436 1.64-.887 2.4-1.462.434-.33.972-.792 1.282-1.457.504-1.081.216-2.444-.686-3.24a3.646 3.646 0 00-.968-.594l1.29-.425c.483.339.851.715 1.122 1.151zm-2.492.546c.097.06.19.125.272.198.505.446.68 1.266.4 1.868-.127.272-.34.53-.672.813v-2.879zm-1.709-.683a.588.588 0 00.12.055l.417.141v4.186c-.346.21-.705.41-1.074.61v-4.815l.055-.018.482-.16zm-1.709 3.713a2.584 2.584 0 01-.555-.477c-.502-.606-.467-1.638.073-2.209a2.13 2.13 0 01.482-.37v3.056zm12.267-11.15c.206 1.046-.246 2.223-1.098 2.862-.53.398-1.215.624-1.876.842l-8.433 2.779c-.699.23-1.569.516-2.193 1.175-.953 1.007-1.009 2.694-.125 3.762.41.495.95.808 1.428 1.084l.03.016v.55a19.2 19.2 0 00-.561.333 8.959 8.959 0 01-.385-.243c-1.326-.885-2.04-1.944-2.121-3.146-.097-1.426.382-2.637 1.349-3.41.718-.576 1.652-.885 2.555-1.183l8.66-2.865c.336-.112.755-.25 1.106-.54.569-.47.826-1.256.64-1.957a1.832 1.832 0 00-1.6-1.346c-.457-.035-.858.109-1.21.235-.099.035-.191.068-.28.096-.543.17-1.066.158-1.473-.031-.404-.188-.693-.599-.685-.976.01-.45.48-1.003 1.222-1.111a2.14 2.14 0 011.21.18c.093.044.19.098.292.155.165.092.353.197.561.276.215.082.43.128.621.17a2.868 2.868 0 011.55.805c.419.414.709.943.816 1.488z" fill="#4C40F7"/></g><defs><clipPath id="clip0_1_162"><path fill="#fff" d="M0 0h40v40H0z"/></clipPath></defs></svg>