<svg width="40" height="40" fill="none" xmlns="http://www.w3.org/2000/svg"><g clip-path="url(#clip0_1_169)" fill="#4C40F7"><path d="M27.127 23.532l-5.577-4.183v-8.52a1.549 1.549 0 10-3.099 0v9.295c0 .488.23.948.62 1.24l6.197 4.647c.278.209.604.31.928.31.472 0 .937-.213 1.24-.622a1.546 1.546 0 00-.31-2.167z"/><path d="M20 0C8.971 0 0 8.971 0 20s8.971 20 20 20 20-8.971 20-20S31.029 0 20 0zm0 36.902c-9.318 0-16.902-7.584-16.902-16.902 0-9.318 7.584-16.902 16.902-16.902 9.32 0 16.902 7.584 16.902 16.902 0 9.318-7.584 16.902-16.902 16.902z"/></g><defs><clipPath id="clip0_1_169"><path fill="#fff" d="M0 0h40v40H0z"/></clipPath></defs></svg>