<svg width="50" height="50" fill="none" xmlns="http://www.w3.org/2000/svg"><circle cx="25" cy="25" r="25" fill="#DCEEFE"/><g clip-path="url(#clip0_1_248)"><path d="M31.735 17.306l-5.158-5.19a.39.39 0 00-.278-.116H15.002a1.613 1.613 0 00-1.611 1.611V35.39A1.613 1.613 0 0015.002 37h15.236a1.613 1.613 0 001.611-1.611v-7.627l5.092-5.093a2.29 2.29 0 00-3.237-3.237l-1.855 1.855v-3.706a.39.39 0 00-.114-.275zm.72 4.48l2.133 2.132-7.476 7.476-2.132-2.132 7.475-7.476zm1.077-1.078l2.133 2.133-.525.525-2.132-2.133.524-.524zm-8.906 9.305l1.727 1.726-2.155.402.428-2.128zm2.257-16.481l3.413 3.434h-3.413v-3.434zm4.185 21.857a.831.831 0 01-.83.83H15.002a.831.831 0 01-.83-.83V13.61a.831.831 0 01.83-.83h11.1v4.575a.391.391 0 00.39.391h4.576v4.321l-6.977 6.978a.39.39 0 00-.107.199l-.666 3.31a.39.39 0 00.455.46l3.35-.624a.39.39 0 00.205-.108l3.74-3.74v6.846zm5.32-15.404a1.513 1.513 0 010 2.132l-.17.171-2.133-2.132.171-.171a1.51 1.51 0 012.133 0zM22.866 30.31a.39.39 0 01-.39.39h-6.1a.39.39 0 110-.78h6.1a.388.388 0 01.36.24.39.39 0 01.03.15zm-6.88-3.404a.39.39 0 01.391-.391h8.058a.39.39 0 110 .781h-8.058a.39.39 0 01-.39-.39zm0-3.405a.39.39 0 01.391-.39h12.488a.39.39 0 110 .78H16.376a.39.39 0 01-.39-.39zm0-3.404a.39.39 0 01.391-.39h12.488a.39.39 0 010 .78H16.376a.39.39 0 01-.39-.39zm0-3.404a.39.39 0 01.391-.39h8.27a.39.39 0 010 .78h-8.27a.39.39 0 01-.39-.39z" fill="#5D636B"/></g><defs><clipPath id="clip0_1_248"><path fill="#fff" transform="translate(13 12)" d="M0 0h25v25H0z"/></clipPath></defs></svg>