<svg width="50" height="50" fill="none" xmlns="http://www.w3.org/2000/svg"><circle cx="25" cy="25" r="25" fill="#DCEEFE"/><path d="M35.424 17.86a2.916 2.916 0 10-3.353.48 2.07 2.07 0 00-.741 1.58v3.333h-1.25V19.92a2.919 2.919 0 00-2.57-2.893 2.916 2.916 0 10-4.025 0 2.919 2.919 0 00-2.57 2.893v3.333h-1.25V19.92a2.07 2.07 0 00-.74-1.58 2.916 2.916 0 10-3.355-.48A2.919 2.919 0 0013 20.753v6.25a2.916 2.916 0 001.666 2.63V37h.833v-7.115c.137.02 2.917.033 2.917.033.23 0 .416.187.416.417V37h3.333v-7.915h2.916v7.082h-1.666V37h4.165v-.833h-1.666v-7.082h2.916V37h3.333v-6.665c0-.23.186-.417.416-.417 0 0 2.78-.014 2.916-.033V37h.833v-7.367a2.916 2.916 0 001.667-2.63v-6.25a2.919 2.919 0 00-2.57-2.893zm-4.095-2.105a2.083 2.083 0 114.166 0 2.083 2.083 0 01-4.165 0zm-4.944 2.082l-.888 1.334-.888-1.334h1.776zm-2.97-2.916a2.083 2.083 0 114.166 0 2.083 2.083 0 01-4.166 0zm-1.667 5a2.079 2.079 0 011.875-2.063l1.874 2.812 1.875-2.813a2.079 2.079 0 011.875 2.063v3.333H27.58v2.5h-4.165v-2.5h-1.667V19.92zM15.5 15.754a2.083 2.083 0 114.166 0 2.083 2.083 0 01-4.165 0zm5.833 20.412h-1.667v-5.832c0-.69-.56-1.25-1.25-1.25h-2.499a2.085 2.085 0 01-2.083-2.083v-6.249a2.085 2.085 0 012.083-2.082h1.666c.69 0 1.25.56 1.25 1.25v4.165h3.75v1.666h-5a.417.417 0 01-.416-.416v-5h-.833v5c0 .69.56 1.25 1.25 1.25h1.666a2.086 2.086 0 012.083 2.082v7.499zm.8-7.915a2.91 2.91 0 00-.847-1.666h8.424a2.91 2.91 0 00-.846 1.666h-6.732zm15.03-1.25a2.085 2.085 0 01-2.083 2.083h-2.5c-.69 0-1.25.56-1.25 1.25v5.832h-1.666v-7.499a2.086 2.086 0 012.083-2.082h1.666c.69 0 1.25-.56 1.25-1.25v-5h-.833v5c0 .23-.187.416-.417.416h-4.999v-1.666h3.75V19.92c0-.69.56-1.25 1.25-1.25h1.666a2.086 2.086 0 012.083 2.083v6.25z" fill="#5D636B"/></svg>