<svg width="40" height="38" fill="none" xmlns="http://www.w3.org/2000/svg"><path d="M12.12.618a12.098 12.098 0 00-8.573 3.548c-4.71 4.71-4.728 12.318-.063 17.057v.013l15.912 15.9a.86.86 0 001.208 0l15.912-15.9v-.013c4.665-4.738 4.647-12.346-.063-17.057A12.086 12.086 0 0027.994.618c-2.882-.026-5.678.846-7.988 2.873C17.726 1.485 14.971.618 12.12.618zm0 1.717a10.33 10.33 0 017.276 3.002.86.86 0 001.208 0 10.35 10.35 0 0114.628.05 10.343 10.343 0 01.05 14.628L20.007 35.304 4.718 20.014a10.343 10.343 0 01.05-14.627 10.359 10.359 0 017.352-3.052z" fill="#4C40F7"/><path d="M17.59 11.251a.862.862 0 00-.7.585l-2.11 6.296H8.507a.861.861 0 00-.852.865.861.861 0 00.852.865h6.894a.862.862 0 00.814-.585l1.489-4.452 3.777 11.333a.862.862 0 001.628 0l2.112-6.296h6.27a.861.861 0 00.853-.865.862.862 0 00-.853-.865H24.6a.861.861 0 00-.827.598l-1.476 4.452-3.777-11.346a.862.862 0 00-.929-.585z" fill="#4C40F7"/></svg>