<svg width="32" height="32" fill="none" xmlns="http://www.w3.org/2000/svg"><path fill-rule="evenodd" clip-rule="evenodd" d="M0 16C0 7.163 7.163 0 16 0s16 7.163 16 16-7.163 16-16 16S0 24.837 0 16z" fill="#4C40F7"/><path fill-rule="evenodd" clip-rule="evenodd" d="M16 0C7.163 0 0 7.163 0 16s7.163 16 16 16 16-7.163 16-16S24.837 0 16 0zm-3.184 7.518c.91-.041 1.201-.051 3.519-.051h-.003c2.319 0 2.608.01 3.518.051.909.042 1.53.186 2.073.397a4.17 4.17 0 011.512.984c.474.474.766.95.984 1.512.21.542.354 1.162.397 2.07.04.91.051 1.202.051 3.52 0 2.317-.01 2.607-.051 3.517-.043.908-.187 1.529-.397 2.071a4.188 4.188 0 01-.985 1.512 4.182 4.182 0 01-1.51.985c-.543.21-1.164.355-2.072.396-.91.041-1.2.052-3.518.052-2.317 0-2.608-.01-3.518-.052-.909-.041-1.529-.185-2.072-.396a4.177 4.177 0 01-1.511-.985 4.181 4.181 0 01-.984-1.512c-.211-.542-.355-1.163-.397-2.071-.04-.91-.051-1.2-.051-3.518 0-2.317.01-2.608.051-3.519.041-.908.185-1.528.397-2.07a4.19 4.19 0 01.985-1.512 4.17 4.17 0 011.511-.984c.543-.211 1.163-.355 2.071-.397z" fill="#fff"/><path fill-rule="evenodd" clip-rule="evenodd" d="M15.57 9.004h.766c2.278 0 2.548.008 3.448.05.832.037 1.283.176 1.584.293.398.155.682.34.98.638.3.299.484.583.64.982.116.3.255.752.293 1.584.041.9.05 1.17.05 3.447s-.009 2.547-.05 3.447c-.038.832-.177 1.284-.294 1.584-.154.398-.34.682-.638.98a2.638 2.638 0 01-.98.638c-.301.118-.753.256-1.585.295-.9.04-1.17.05-3.448.05-2.28 0-2.55-.01-3.449-.05-.832-.039-1.283-.178-1.584-.295a2.641 2.641 0 01-.982-.638 2.644 2.644 0 01-.638-.98c-.117-.301-.256-.753-.294-1.585-.041-.9-.05-1.17-.05-3.448 0-2.28.009-2.548.05-3.447.038-.832.177-1.284.294-1.585.154-.398.34-.683.638-.981.299-.299.584-.484.982-.639.3-.117.752-.256 1.584-.294.787-.036 1.092-.046 2.683-.048v.002zm5.321 1.417a1.024 1.024 0 100 2.048 1.024 1.024 0 000-2.049zm-8.938 5.578a4.382 4.382 0 118.765 0 4.382 4.382 0 01-8.765 0z" fill="#fff"/><path fill-rule="evenodd" clip-rule="evenodd" d="M16.333 13.155a2.844 2.844 0 110 5.69 2.844 2.844 0 010-5.69z" fill="#fff"/></svg>