<svg width="31" height="23" fill="none" xmlns="http://www.w3.org/2000/svg"><path d="M28.182.227H2.818A2.818 2.818 0 000 3.045v16.91a2.818 2.818 0 002.818 2.818h25.364A2.818 2.818 0 0031 19.954V3.045A2.818 2.818 0 0028.182.227zM2.818 1.637h25.364c.16 0 .32.029.472.084L16.458 13.916a1.346 1.346 0 01-1.91 0L2.347 1.721a1.41 1.41 0 01.472-.085zM1.41 19.953V3.045a1.409 1.409 0 010-.246l8.722 8.7-8.722 8.702a1.408 1.408 0 010-.247zm26.773 1.41H2.818a1.41 1.41 0 01-.472-.085l8.786-8.786 2.416 2.417a2.755 2.755 0 003.896.007l.008-.007 2.416-2.417 8.786 8.786a1.407 1.407 0 01-.472.084zM29.59 20.2l-8.721-8.7 8.722-8.701a1.41 1.41 0 010 .246v16.91a1.41 1.41 0 010 .246z" fill="#0067FF"/></svg>