<svg width="25" height="25" fill="none" xmlns="http://www.w3.org/2000/svg"><g clip-path="url(#clip0_1_127)"><path d="M21.488 8.834l-.85-.283a1.126 1.126 0 00-1.025.156c-.3.217-.472.553-.472.924v2.91c0 .624.507 1.13 1.13 1.13h.041v.594c0 .7-.532 1.278-1.212 1.352a1.956 1.956 0 00-1.913-1.555h-3.515v-3.124h2.437a2.039 2.039 0 002.026-1.806l.548-4.753A3.932 3.932 0 0014.781 0h-4.562a3.932 3.932 0 00-3.902 4.379l.548 4.753a2.039 2.039 0 002.026 1.806h2.437v3.124H7.813c-.94 0-1.728.668-1.913 1.555a1.362 1.362 0 01-1.213-1.352v-.593h.03c.63 0 1.142-.513 1.142-1.143V9.631c0-.37-.172-.707-.472-.924a1.126 1.126 0 00-1.025-.156l-.85.283a1.136 1.136 0 00-.778 1.08v2.615c0 .63.513 1.143 1.143 1.143h.03v.593c0 1.13.88 2.058 1.99 2.135.18.894.97 1.569 1.915 1.569h3.125v2.343h-.78a2.738 2.738 0 00-2.714 2.404A1.173 1.173 0 007.813 25a1.173 1.173 0 001.101-1.57c.441-.021.88-.085 1.308-.192l1.558-.39c.47-.117.97-.117 1.44 0l1.558.39a6.7 6.7 0 001.307.191A1.173 1.173 0 0017.188 25a1.173 1.173 0 00.37-2.283 2.738 2.738 0 00-2.713-2.404h-.781V17.97h3.124c.946 0 1.736-.675 1.915-1.569a2.144 2.144 0 001.992-2.135v-.593h.041c.623 0 1.13-.507 1.13-1.13V9.914c0-.49-.312-.925-.777-1.08zM3.515 12.53V9.914c0-.154.098-.29.244-.339l.849-.283a.353.353 0 01.321.05.353.353 0 01.148.289v2.898c0 .2-.162.362-.361.362h-.84a.362.362 0 01-.361-.362zM7.64 9.042L7.093 4.29A3.15 3.15 0 0110.219.781h4.562a3.15 3.15 0 013.126 3.508l-.549 4.753a1.258 1.258 0 01-1.25 1.114H8.892a1.259 1.259 0 01-1.25-1.114zm4.468 1.896h.782v3.124h-.782v-3.124zm-4.296 13.28a.391.391 0 110-.781.391.391 0 010 .782zm9.375 0a.391.391 0 110-.781.391.391 0 010 .782zm-.43-1.562H16.4a5.91 5.91 0 01-1.432-.176l-1.558-.39a3.756 3.756 0 00-1.82 0l-1.557.39c-.469.117-.95.176-1.433.176h-.358a1.957 1.957 0 011.914-1.562h4.688c.943 0 1.732.672 1.914 1.562zm-3.477-2.343h-1.56v-2.344h1.562v2.343zm3.906-3.125H7.813a1.173 1.173 0 01-1.172-1.172c0-.646.525-1.172 1.171-1.172h9.375a1.173 1.173 0 010 2.344zm4.297-4.646a.35.35 0 01-.349.349h-.864a.35.35 0 01-.35-.35v-2.91c0-.116.055-.222.149-.29a.354.354 0 01.321-.049l.85.283a.356.356 0 01.243.339v2.628z" fill="#F8FAFD"/></g><defs><clipPath id="clip0_1_127"><path fill="#fff" d="M0 0h25v25H0z"/></clipPath></defs></svg>