<svg width="25" height="25" fill="none" xmlns="http://www.w3.org/2000/svg"><g clip-path="url(#clip0_1_99)" fill="#444"><path d="M5.333 14.583h-.826a1.25 1.25 0 00-1.174-.833H1.25C.56 13.75 0 14.31 0 15v8.75C0 24.44.56 25 1.25 25h2.083c.354-.001.69-.153.925-.417h10.45a3.33 3.33 0 001.733-.486l7.809-4.754a1.56 1.56 0 00-1.305-2.811c-8.686 2.896-7.713 2.635-8.345 2.635.505-1.401-.758-2.917-2.337-2.917h-2.18a3.396 3.396 0 01-2.115-.742 4.236 4.236 0 00-2.635-.925zm-2 9.584H1.25a.417.417 0 01-.417-.417V15c0-.23.187-.417.417-.417h2.083c.23 0 .417.187.417.417v8.75c0 .23-.187.417-.417.417zm8.93-7.084c1.106 0 2.065 1.197 1.405 2.084h-2.533a4.14 4.14 0 00-2.31.7l-.306.203a.417.417 0 10.462.693A3.524 3.524 0 0111.135 20c3.962 0 3.928.038 4.363-.107l7.713-2.57a.727.727 0 01.608 1.308l-7.81 4.754a2.5 2.5 0 01-1.3.365H4.582v-8.333c.947 0 1.846-.073 2.865.742a4.235 4.235 0 002.635.924h2.18z"/><path d="M15.835 15.833c3.675 0 6.666-2.786 6.666-6.212 0-3.34-6.118-9.255-6.378-9.505a.417.417 0 00-.577 0c-.26.25-6.378 6.165-6.378 9.505 0 3.426 2.99 6.212 6.667 6.212zm0-14.833c1.865 1.85 5.833 6.273 5.833 8.622 0 2.965-2.617 5.378-5.833 5.378C12.618 15 10 12.587 10 9.621c0-2.348 3.969-6.773 5.834-8.62z"/><path d="M12.915 10.834h1.667V12.5c0 .46.373.834.833.834h.834c.46 0 .833-.374.833-.834v-1.666h1.667c.46 0 .833-.374.833-.834v-.833a.833.833 0 00-.833-.834h-1.667V6.667a.833.833 0 00-.833-.833h-.834a.833.833 0 00-.833.833v1.666h-1.667a.833.833 0 00-.833.834V10c0 .46.373.834.833.834zm0-1.667h1.667c.46 0 .833-.373.833-.834V6.667h.834v1.666c0 .46.373.834.833.834h1.667V10h-1.667a.833.833 0 00-.833.834V12.5h-.834v-1.666a.833.833 0 00-.833-.834h-1.667v-.833z"/></g><defs><clipPath id="clip0_1_99"><path fill="#fff" d="M0 0h25v25H0z"/></clipPath></defs></svg>