<?xml version="1.0" encoding="utf-8"?><svg viewBox="0 0 59 59" xmlns="http://www.w3.org/2000/svg" xmlns:xlink="http://www.w3.org/1999/xlink"><style>:root>svg{display:none}:root>svg:target{display:block}</style><svg fill="none" viewBox="0 0 32 32" id="Instagram-footer" xmlns="http://www.w3.org/2000/svg"><path fill-rule="evenodd" clip-rule="evenodd" d="M0 16C0 7.163 7.163 0 16 0s16 7.163 16 16-7.163 16-16 16S0 24.837 0 16z" fill="#4C40F7"/><path fill-rule="evenodd" clip-rule="evenodd" d="M16 0C7.163 0 0 7.163 0 16s7.163 16 16 16 16-7.163 16-16S24.837 0 16 0zm-3.184 7.518c.91-.041 1.201-.051 3.519-.051h-.003c2.319 0 2.608.01 3.518.051.909.042 1.53.186 2.073.397a4.17 4.17 0 0 1 1.512.984c.474.474.766.95.984 1.512.21.542.354 1.162.397 2.07.04.91.051 1.202.051 3.52 0 2.317-.01 2.607-.051 3.517-.043.908-.187 1.529-.397 2.071a4.188 4.188 0 0 1-.985 1.512 4.182 4.182 0 0 1-1.51.985c-.543.21-1.164.355-2.072.396-.91.041-1.2.052-3.518.052-2.317 0-2.608-.01-3.518-.052-.909-.041-1.529-.185-2.072-.396a4.177 4.177 0 0 1-1.511-.985 4.181 4.181 0 0 1-.984-1.512c-.211-.542-.355-1.163-.397-2.071-.04-.91-.051-1.2-.051-3.518 0-2.317.01-2.608.051-3.519.041-.908.185-1.528.397-2.07a4.19 4.19 0 0 1 .985-1.512 4.17 4.17 0 0 1 1.511-.984c.543-.211 1.163-.355 2.071-.397z" fill="#fff"/><path fill-rule="evenodd" clip-rule="evenodd" d="M15.57 9.004h.766c2.278 0 2.548.008 3.448.05.832.037 1.283.176 1.584.293.398.155.682.34.98.638.3.299.484.583.64.982.116.3.255.752.293 1.584.041.9.05 1.17.05 3.447s-.009 2.547-.05 3.447c-.038.832-.177 1.284-.294 1.584-.154.398-.34.682-.638.98a2.638 2.638 0 0 1-.98.638c-.301.118-.753.256-1.585.295-.9.04-1.17.05-3.448.05-2.28 0-2.55-.01-3.449-.05-.832-.039-1.283-.178-1.584-.295a2.641 2.641 0 0 1-.982-.638 2.644 2.644 0 0 1-.638-.98c-.117-.301-.256-.753-.294-1.585-.041-.9-.05-1.17-.05-3.448 0-2.28.009-2.548.05-3.447.038-.832.177-1.284.294-1.585.154-.398.34-.683.638-.981.299-.299.584-.484.982-.639.3-.117.752-.256 1.584-.294.787-.036 1.092-.046 2.683-.048v.002zm5.321 1.417a1.024 1.024 0 1 0 0 2.048 1.024 1.024 0 0 0 0-2.049zm-8.938 5.578a4.382 4.382 0 1 1 8.765 0 4.382 4.382 0 0 1-8.765 0z" fill="#fff"/><path fill-rule="evenodd" clip-rule="evenodd" d="M16.333 13.155a2.844 2.844 0 1 1 0 5.69 2.844 2.844 0 0 1 0-5.69z" fill="#fff"/></svg><svg fill="none" viewBox="0 0 40 38" id="about-1" xmlns="http://www.w3.org/2000/svg"><path d="M12.12.618a12.098 12.098 0 0 0-8.573 3.548c-4.71 4.71-4.728 12.318-.063 17.057v.013l15.912 15.9a.86.86 0 0 0 1.208 0l15.912-15.9v-.013c4.665-4.738 4.647-12.346-.063-17.057A12.086 12.086 0 0 0 27.994.618c-2.882-.026-5.678.846-7.988 2.873C17.726 1.485 14.971.618 12.12.618zm0 1.717a10.33 10.33 0 0 1 7.276 3.002.86.86 0 0 0 1.208 0 10.35 10.35 0 0 1 14.628.05 10.343 10.343 0 0 1 .05 14.628L20.007 35.304 4.718 20.014a10.343 10.343 0 0 1 .05-14.627 10.359 10.359 0 0 1 7.352-3.052z" fill="#4C40F7"/><path d="M17.59 11.251a.862.862 0 0 0-.7.585l-2.11 6.296H8.507a.861.861 0 0 0-.852.865.861.861 0 0 0 .852.865h6.894a.862.862 0 0 0 .814-.585l1.489-4.452 3.777 11.333a.862.862 0 0 0 1.628 0l2.112-6.296h6.27a.861.861 0 0 0 .853-.865.862.862 0 0 0-.853-.865H24.6a.861.861 0 0 0-.827.598l-1.476 4.452-3.777-11.346a.862.862 0 0 0-.929-.585z" fill="#4C40F7"/></svg><svg fill="none" viewBox="0 0 40 40" id="about-2" xmlns="http://www.w3.org/2000/svg"><path d="M39.952 22.298a4.667 4.667 0 0 0-3.953-3.952v-1.212c0-3.344-2.541-6.067-5.666-6.067-3.035 0-5.575 2.64-5.667 5.886h.039l-.039.006v13.138c0 4.2-3.14 7.61-7 7.61s-7-3.415-7-7.61V28.96c.967 0 2-.7 2-2.666v-1.677C16.947 23.522 20 19.848 20 15.683v-1.39h-1.334l-.028-8.677a3.337 3.337 0 0 0-2.742-3.263 1.99 1.99 0 1 0-.046 1.36 2 2 0 0 1 1.453 1.907l.03 8.673H16v1.409a5.301 5.301 0 0 1-3.838 4.974 6.062 6.062 0 0 1-3.666 0 5.298 5.298 0 0 1-3.83-4.974v-1.41h-2V5.627a2 2 0 0 1 1.48-1.922 2.01 2.01 0 1 0-.04-1.354 3.333 3.333 0 0 0-2.773 3.276v8.667H0v1.386c0 4.17 3.057 7.846 7.333 8.937v1.677c0 1.966 1.034 2.666 2 2.666v1.138c0 4.933 3.738 8.944 8.333 8.944 4.596 0 8.334-4.015 8.334-8.944V16.991c.066-2.53 2.012-4.588 4.333-4.588 2.39 0 4.333 2.122 4.333 4.733v1.21a4.667 4.667 0 1 0 5.286 3.952zM14 3.626a.667.667 0 1 1 0-1.333.667.667 0 0 1 0 1.333zM6 2.293a.667.667 0 1 1 0 1.333.667.667 0 0 1 0-1.333zM1.333 15.679v-.053h2v.076a6.624 6.624 0 0 0 4.759 6.242 7.418 7.418 0 0 0 4.478 0 6.625 6.625 0 0 0 4.763-6.242v-.076h1.333v.053c0 3.709-2.858 6.972-6.8 7.762a9.512 9.512 0 0 1-3.733-.002c-3.941-.788-6.8-4.051-6.8-7.76zm8 11.947c-.6 0-.666-.934-.666-1.334v-1.414c.053.006.108.01.162.014.066.008.133.013.2.02.315.027.633.046.954.047h.033c.32 0 .637-.02.95-.048.067-.006.138-.011.207-.019.052-.005.107-.008.16-.014v1.415c0 .4-.067 1.333-.667 1.333H9.333zm26-1.334a3.333 3.333 0 1 1 0-6.666 3.333 3.333 0 0 1 0 6.666z" fill="#4C40F7"/></svg><svg fill="none" viewBox="0 0 40 40" id="about-3" xmlns="http://www.w3.org/2000/svg"><g clip-path="url(#aca)"><path d="M39.405 7.952c-.201-.485-.67-.8-1.196-.8h-1.04a34.5 34.5 0 0 1-4.817-.338.586.586 0 0 0-.164 1.16c1.645.233 3.32.35 4.982.35h1.039c.02 0 .082 0 .113.077a.113.113 0 0 1-.026.134l-.822.822a2.55 2.55 0 0 1-1.816.752h-.754c-.998 0-1.938.389-2.644 1.095a2.55 2.55 0 0 1-1.815.752H28.91c-.503 0-1.006.104-1.469.3a3.325 3.325 0 0 0-2.107-.398 2.827 2.827 0 0 0-1.49.71c-.462.424-.723.97-.735 1.538l.003.129h-1.408V8.41l.013-.01a6.577 6.577 0 0 1 6.023-1.346c.69.19 1.393.36 2.092.507a.587.587 0 0 0 .242-1.147 34.623 34.623 0 0 1-2.024-.49 7.747 7.747 0 0 0-6.346 1.02V5.787a3.12 3.12 0 0 0 1.439-2.643A3.147 3.147 0 0 0 20 0a3.147 3.147 0 0 0-3.143 3.144c0 1.081.54 2.06 1.43 2.637V6.94a7.777 7.777 0 0 0-6.338-1.015A34.45 34.45 0 0 1 2.83 7.153H1.79c-.525 0-.995.314-1.196.8-.2.485-.09 1.039.281 1.41l.822.822a3.715 3.715 0 0 0 2.644 1.096h.754c.686 0 1.33.267 1.815.752a3.715 3.715 0 0 0 2.645 1.095h.59a4.026 4.026 0 0 0-.896.748c-.735.827-1.12 1.794-1.113 2.796a4.057 4.057 0 0 0 1.36 2.976c.726.637 1.62.964 2.474 1.244a.587.587 0 1 0 .365-1.114c-.738-.242-1.506-.52-2.065-1.01a2.869 2.869 0 0 1-.962-2.105c-.005-.707.277-1.402.817-2.009.238-.267.536-.491.91-.684.267-.137.548-.24.845-.348.162-.06.33-.12.5-.19.653-.263 1.415-.516 2.117-.39.54.096 1.128.538 1.135 1.084.005.33-.214.683-.544.878-.33.194-.778.254-1.231.164a6.015 6.015 0 0 1-.527-.14c-.518-.155-1.104-.33-1.73-.144-.57.17-1.013.646-1.184 1.275-.171.63-.032 1.265.373 1.7.374.4.884.58 1.257.711 2.013.71 4.064 1.393 6.103 2.036-.477.166-.967.356-1.435.605l-2.04-.672a.586.586 0 1 0-.365 1.114l1.216.4c-1.066 1.017-1.588 2.468-1.475 4.134.106 1.557 1.015 2.951 2.627 4.032-.345.271-.674.57-.973.905-.943 1.056-1.422 2.348-1.315 3.544.131 1.468 1.19 2.712 2.515 2.958a.585.585 0 0 0 .672-.729c-.282-1.051-.508-2.064-.162-2.898.177-.426.494-.779.873-1.08v5.372A1.71 1.71 0 0 0 19.995 40a1.71 1.71 0 0 0 1.709-1.709v-5.278c.376.327.637.668.789 1.032.383.92.09 2.057-.163 2.834a.586.586 0 0 0 .642.761c1.39-.204 2.5-1.52 2.58-3.062.064-1.224-.49-2.534-1.521-3.594a8.102 8.102 0 0 0-.893-.787c.802-.555 1.513-1.219 2.029-2.093.197-.334.356-.695.473-1.074.42-1.364.253-2.853-.449-3.982a4.793 4.793 0 0 0-.797-.968l3.552-1.17c.716-.237 1.528-.504 2.212-1.018 1.218-.913 1.84-2.531 1.545-4.025a4.102 4.102 0 0 0-1.143-2.097 4.164 4.164 0 0 0-.84-.642h.724a3.72 3.72 0 0 0 2.644-1.095 2.551 2.551 0 0 1 1.816-.752h.753c1 0 1.938-.39 2.645-1.096l.822-.821c.371-.372.481-.926.28-1.412zm-15.863 7.454c.234.319.553.587.93.763.673.313 1.495.344 2.316.087a8.3 8.3 0 0 0 .326-.111c.267-.096.52-.186.725-.17a.67.67 0 0 1 .558.479.767.767 0 0 1-.253.752c-.181.15-.46.241-.728.33l-5.711 1.89v-4.02h1.837zM18.03 3.144c0-1.087.884-1.972 1.971-1.972a1.974 1.974 0 0 1 .862 3.746.586.586 0 0 0-.33.527v14.369l-1.1.364A.585.585 0 0 0 19.46 20V5.44a.586.586 0 0 0-.327-.525 1.961 1.961 0 0 1-1.103-1.77zm-3.326 8.744c-.824-.147-1.624.04-2.333.294a3.72 3.72 0 0 0-1.28-.226H9.555a2.551 2.551 0 0 1-1.816-.752 3.715 3.715 0 0 0-2.644-1.095h-.754a2.55 2.55 0 0 1-1.816-.752l-.821-.822a.113.113 0 0 1-.027-.134c.031-.076.093-.076.114-.076H2.83c3.185 0 6.357-.428 9.428-1.27a6.6 6.6 0 0 1 5.884 1.229.583.583 0 0 0 .144.085v5.866h-1.485c.002-.042.003-.083.003-.125-.016-1.203-1.095-2.043-2.102-2.222zm-3.055 5.172c-.15-.16-.15-.411-.1-.592.049-.182.177-.398.387-.46.291-.087.648.02 1.062.143.203.06.412.122.632.166.743.148 1.473.04 2.056-.304.267-.158.496-.367.677-.607h1.925v4.015a194.865 194.865 0 0 1-5.851-1.956c-.287-.1-.611-.215-.788-.405zm8.348 21.768a.537.537 0 0 1-.537-.537v-6.104a2.75 2.75 0 0 1 .024-.013c.33-.172.676-.343 1.012-.509l.038-.018v6.644a.538.538 0 0 1-.537.537zm3.196-7.027c.803.826 1.238 1.816 1.19 2.716a2.288 2.288 0 0 1-.607 1.42c.122-.742.124-1.568-.2-2.343-.32-.768-.933-1.434-1.87-2.036v-.505c.119-.063.237-.127.355-.192.455.316.82.62 1.132.94zm1.005-8.134c.525.845.646 1.973.324 3.018-.09.291-.212.568-.363.824-.866 1.469-2.552 2.3-4.182 3.106a50.05 50.05 0 0 0-1.035.52c-1.014.529-2.117 1.23-2.609 2.416-.315.76-.31 1.564-.179 2.363a2.313 2.313 0 0 1-.596-1.35c-.078-.875.294-1.845 1.022-2.66.71-.796 1.66-1.377 2.58-1.886.199-.11.398-.217.598-.325.806-.436 1.64-.887 2.4-1.462.434-.33.972-.792 1.282-1.457.504-1.081.216-2.444-.686-3.24a3.646 3.646 0 0 0-.968-.594l1.29-.425c.483.339.851.715 1.122 1.151zm-2.492.546c.097.06.19.125.272.198.505.446.68 1.266.4 1.868-.127.272-.34.53-.672.813v-2.879zm-1.709-.683a.588.588 0 0 0 .12.055l.417.141v4.186c-.346.21-.705.41-1.074.61v-4.815l.055-.018.482-.16zm-1.709 3.713a2.584 2.584 0 0 1-.555-.477c-.502-.606-.467-1.638.073-2.209a2.13 2.13 0 0 1 .482-.37v3.056zm12.267-11.15c.206 1.046-.246 2.223-1.098 2.862-.53.398-1.215.624-1.876.842l-8.433 2.779c-.699.23-1.569.516-2.193 1.175-.953 1.007-1.009 2.694-.125 3.762.41.495.95.808 1.428 1.084l.03.016v.55a19.2 19.2 0 0 0-.561.333 8.959 8.959 0 0 1-.385-.243c-1.326-.885-2.04-1.944-2.121-3.146-.097-1.426.382-2.637 1.349-3.41.718-.576 1.652-.885 2.555-1.183l8.66-2.865c.336-.112.755-.25 1.106-.54.569-.47.826-1.256.64-1.957a1.832 1.832 0 0 0-1.6-1.346c-.457-.035-.858.109-1.21.235-.099.035-.191.068-.28.096-.543.17-1.066.158-1.473-.031-.404-.188-.693-.599-.685-.976.01-.45.48-1.003 1.222-1.111a2.14 2.14 0 0 1 1.21.18c.093.044.19.098.292.155.165.092.353.197.561.276.215.082.43.128.621.17a2.868 2.868 0 0 1 1.55.805c.419.414.709.943.816 1.488z" fill="#4C40F7"/></g><defs><clipPath id="aca"><path fill="#fff" d="M0 0h40v40H0z"/></clipPath></defs></svg><svg fill="none" viewBox="0 0 40 40" id="about-4" xmlns="http://www.w3.org/2000/svg"><g clip-path="url(#ada)" fill="#4C40F7"><path d="m27.127 23.532-5.577-4.183v-8.52a1.549 1.549 0 1 0-3.099 0v9.295c0 .488.23.948.62 1.24l6.197 4.647c.278.209.604.31.928.31.472 0 .937-.213 1.24-.622a1.546 1.546 0 0 0-.31-2.167z"/><path d="M20 0C8.971 0 0 8.971 0 20s8.971 20 20 20 20-8.971 20-20S31.029 0 20 0zm0 36.902c-9.318 0-16.902-7.584-16.902-16.902 0-9.318 7.584-16.902 16.902-16.902 9.32 0 16.902 7.584 16.902 16.902 0 9.318-7.584 16.902-16.902 16.902z"/></g><defs><clipPath id="ada"><path fill="#fff" d="M0 0h40v40H0z"/></clipPath></defs></svg><svg fill="none" viewBox="0 0 14 14" id="about-check" xmlns="http://www.w3.org/2000/svg"><g clip-path="url(#aea)"><path d="M5.36 12.23a.713.713 0 0 1-1.01 0L.314 8.193a1.072 1.072 0 0 1 0-1.516l.506-.505a1.072 1.072 0 0 1 1.516 0l2.52 2.52 6.808-6.81a1.072 1.072 0 0 1 1.517 0l.505.506a1.072 1.072 0 0 1 0 1.516L5.36 12.23z" fill="#4C40F7"/></g><defs><clipPath id="aea"><path fill="#fff" d="M0 0h14v14H0z"/></clipPath></defs></svg><svg fill="none" viewBox="0 0 50 50" id="appointment-1" xmlns="http://www.w3.org/2000/svg"><circle cx="25" cy="25" r="25" fill="#4C40F7"/><g clip-path="url(#afa)" fill="#fff"><path d="M18.333 26.583h-.826a1.25 1.25 0 0 0-1.174-.833H14.25c-.69 0-1.25.56-1.25 1.25v8.75c0 .69.56 1.25 1.25 1.25h2.083c.354-.001.69-.153.925-.417h10.45a3.33 3.33 0 0 0 1.733-.486l7.809-4.754a1.56 1.56 0 0 0-1.305-2.811c-8.686 2.896-7.713 2.635-8.345 2.635.505-1.401-.758-2.917-2.337-2.917h-2.18a3.396 3.396 0 0 1-2.115-.742 4.236 4.236 0 0 0-2.635-.925zm-2 9.584H14.25a.417.417 0 0 1-.417-.417V27c0-.23.187-.417.417-.417h2.083c.23 0 .417.187.417.417v8.75c0 .23-.186.417-.417.417zm8.93-7.084c1.106 0 2.065 1.197 1.404 2.084h-2.532a4.14 4.14 0 0 0-2.31.7l-.306.203a.417.417 0 0 0 .462.693A3.524 3.524 0 0 1 24.135 32c3.962 0 3.928.038 4.363-.107l7.713-2.57a.727.727 0 0 1 .608 1.308l-7.81 4.754a2.5 2.5 0 0 1-1.3.365H17.582v-8.333c.947 0 1.846-.073 2.865.742a4.235 4.235 0 0 0 2.635.924h2.18z"/><path d="M28.835 27.833c3.675 0 6.666-2.786 6.666-6.212 0-3.34-6.118-9.255-6.378-9.505a.417.417 0 0 0-.577 0c-.26.25-6.378 6.165-6.378 9.505 0 3.426 2.99 6.212 6.667 6.212zm0-14.833c1.865 1.85 5.833 6.273 5.833 8.622 0 2.965-2.617 5.378-5.833 5.378C25.618 27 23 24.587 23 21.621c0-2.348 3.969-6.773 5.834-8.621z"/><path d="M25.915 22.833h1.667V24.5c0 .46.373.833.833.833h.834c.46 0 .833-.373.833-.833v-1.667h1.667c.46 0 .833-.373.833-.833v-.833a.833.833 0 0 0-.833-.834h-1.667v-1.666a.833.833 0 0 0-.833-.834h-.834a.833.833 0 0 0-.833.834v1.666h-1.667a.833.833 0 0 0-.833.834V22c0 .46.373.833.833.833zm0-1.666h1.667c.46 0 .833-.373.833-.834v-1.666h.834v1.666c0 .46.373.834.833.834h1.667V22h-1.667a.833.833 0 0 0-.833.833V24.5h-.834v-1.667a.833.833 0 0 0-.833-.833h-1.667v-.833z"/></g><defs><clipPath id="afa"><path fill="#fff" transform="translate(13 12)" d="M0 0h25v25H0z"/></clipPath></defs></svg><svg fill="none" viewBox="0 0 50 50" id="appointment-2" xmlns="http://www.w3.org/2000/svg"><circle cx="25" cy="25" r="25" fill="#DCEEFE"/><g clip-path="url(#aga)"><path d="m31.735 17.306-5.158-5.19a.39.39 0 0 0-.278-.116H15.002a1.613 1.613 0 0 0-1.611 1.611V35.39A1.613 1.613 0 0 0 15.002 37h15.236a1.613 1.613 0 0 0 1.611-1.611v-7.627l5.092-5.093a2.29 2.29 0 0 0-3.237-3.237l-1.855 1.855v-3.706a.39.39 0 0 0-.114-.275zm.72 4.48 2.133 2.132-7.476 7.476-2.132-2.132 7.475-7.476zm1.077-1.078 2.133 2.133-.525.525-2.132-2.133.524-.524zm-8.906 9.305 1.727 1.726-2.155.402.428-2.128zm2.257-16.481 3.413 3.434h-3.413v-3.434zm4.185 21.857a.831.831 0 0 1-.83.83H15.002a.831.831 0 0 1-.83-.83V13.61a.831.831 0 0 1 .83-.83h11.1v4.575a.391.391 0 0 0 .39.391h4.576v4.321l-6.977 6.978a.39.39 0 0 0-.107.199l-.666 3.31a.39.39 0 0 0 .455.46l3.35-.624a.39.39 0 0 0 .205-.108l3.74-3.74v6.846zm5.32-15.404a1.513 1.513 0 0 1 0 2.132l-.17.171-2.133-2.132.171-.171a1.51 1.51 0 0 1 2.133 0zM22.866 30.31a.39.39 0 0 1-.39.39h-6.1a.39.39 0 1 1 0-.78h6.1a.388.388 0 0 1 .36.24.39.39 0 0 1 .03.15zm-6.88-3.404a.39.39 0 0 1 .391-.391h8.058a.39.39 0 1 1 0 .781h-8.058a.39.39 0 0 1-.39-.39zm0-3.405a.39.39 0 0 1 .391-.39h12.488a.39.39 0 1 1 0 .78H16.376a.39.39 0 0 1-.39-.39zm0-3.404a.39.39 0 0 1 .391-.39h12.488a.39.39 0 0 1 0 .78H16.376a.39.39 0 0 1-.39-.39zm0-3.404a.39.39 0 0 1 .391-.39h8.27a.39.39 0 0 1 0 .78h-8.27a.39.39 0 0 1-.39-.39z" fill="#5D636B"/></g><defs><clipPath id="aga"><path fill="#fff" transform="translate(13 12)" d="M0 0h25v25H0z"/></clipPath></defs></svg><svg fill="none" viewBox="0 0 50 50" id="appointment-3" xmlns="http://www.w3.org/2000/svg"><circle cx="25" cy="25" r="25" fill="#DCEEFE"/><path d="M35.424 17.86a2.916 2.916 0 1 0-3.353.48 2.07 2.07 0 0 0-.741 1.58v3.333h-1.25V19.92a2.919 2.919 0 0 0-2.57-2.893 2.916 2.916 0 1 0-4.025 0 2.919 2.919 0 0 0-2.57 2.893v3.333h-1.25V19.92a2.07 2.07 0 0 0-.74-1.58 2.916 2.916 0 1 0-3.355-.48A2.919 2.919 0 0 0 13 20.753v6.25a2.916 2.916 0 0 0 1.666 2.63V37h.833v-7.115c.137.02 2.917.033 2.917.033.23 0 .416.187.416.417V37h3.333v-7.915h2.916v7.082h-1.666V37h4.165v-.833h-1.666v-7.082h2.916V37h3.333v-6.665c0-.23.186-.417.416-.417 0 0 2.78-.014 2.916-.033V37h.833v-7.367a2.916 2.916 0 0 0 1.667-2.63v-6.25a2.919 2.919 0 0 0-2.57-2.893zm-4.095-2.105a2.083 2.083 0 1 1 4.166 0 2.083 2.083 0 0 1-4.165 0zm-4.944 2.082-.888 1.334-.888-1.334h1.776zm-2.97-2.916a2.083 2.083 0 1 1 4.166 0 2.083 2.083 0 0 1-4.166 0zm-1.667 5a2.079 2.079 0 0 1 1.875-2.063l1.874 2.812 1.875-2.813a2.079 2.079 0 0 1 1.875 2.063v3.333H27.58v2.5h-4.165v-2.5h-1.667V19.92zM15.5 15.754a2.083 2.083 0 1 1 4.166 0 2.083 2.083 0 0 1-4.165 0zm5.833 20.412h-1.667v-5.832c0-.69-.56-1.25-1.25-1.25h-2.499a2.085 2.085 0 0 1-2.083-2.083v-6.249a2.085 2.085 0 0 1 2.083-2.082h1.666c.69 0 1.25.56 1.25 1.25v4.165h3.75v1.666h-5a.417.417 0 0 1-.416-.416v-5h-.833v5c0 .69.56 1.25 1.25 1.25h1.666a2.086 2.086 0 0 1 2.083 2.082v7.499zm.8-7.915a2.91 2.91 0 0 0-.847-1.666h8.424a2.91 2.91 0 0 0-.846 1.666h-6.732zm15.03-1.25a2.085 2.085 0 0 1-2.083 2.083h-2.5c-.69 0-1.25.56-1.25 1.25v5.832h-1.666v-7.499a2.086 2.086 0 0 1 2.083-2.082h1.666c.69 0 1.25-.56 1.25-1.25v-5h-.833v5c0 .23-.187.416-.417.416h-4.999v-1.666h3.75V19.92c0-.69.56-1.25 1.25-1.25h1.666a2.086 2.086 0 0 1 2.083 2.083v6.25z" fill="#5D636B"/></svg><svg fill="none" viewBox="0 0 16 8" id="arrow-right" xmlns="http://www.w3.org/2000/svg"><path d="M15.354 4.354a.5.5 0 0 0 0-.708L12.172.464a.5.5 0 1 0-.708.708L14.293 4l-2.829 2.828a.5.5 0 1 0 .708.708l3.182-3.182zM0 4.5h15v-1H0v1z" fill="#444"/></svg><svg fill="none" viewBox="0 0 31 31" id="facebook" xmlns="http://www.w3.org/2000/svg"><path d="M15.5 0C6.953 0 0 6.953 0 15.5 0 24.046 6.953 31 15.5 31 24.046 31 31 24.046 31 15.5 31 6.953 24.047 0 15.5 0zm3.855 16.046h-2.522v8.988h-3.737v-8.988H11.32v-3.177h1.776v-2.055c0-1.471.7-3.77 3.771-3.77l2.77.01v3.083h-2.01c-.328 0-.793.164-.793.866v1.867h2.847l-.326 3.176z" fill="#0067FF"/></svg><svg fill="none" viewBox="0 0 32 32" id="facebook-footer" xmlns="http://www.w3.org/2000/svg"><path fill-rule="evenodd" clip-rule="evenodd" d="M0 16C0 7.163 7.163 0 16 0s16 7.163 16 16-7.163 16-16 16S0 24.837 0 16z" fill="#4C40F7"/><path fill-rule="evenodd" clip-rule="evenodd" d="M16 0C7.163 0 0 7.163 0 16s7.163 16 16 16 16-7.163 16-16S24.837 0 16 0zm1.667 16.703v8.705h-3.602v-8.705h-1.8v-3h1.8v-1.8C14.065 9.454 15.081 8 17.968 8h2.403v3h-1.502c-1.124 0-1.198.42-1.198 1.202l-.004 1.501h2.721l-.318 3h-2.403z" fill="#fff"/></svg><svg fill="none" viewBox="0 0 32 32" id="fasebook-footer" xmlns="http://www.w3.org/2000/svg"><path fill-rule="evenodd" clip-rule="evenodd" d="M16 0C7.163 0 0 7.163 0 16s7.163 16 16 16 16-7.163 16-16S24.837 0 16 0zm1.667 16.703v8.705h-3.602v-8.705h-1.8v-3h1.8v-1.8C14.065 9.454 15.081 8 17.968 8h2.403v3h-1.502c-1.124 0-1.198.42-1.198 1.202l-.004 1.501h2.721l-.318 3h-2.403z" fill="#fff"/></svg><svg fill="none" viewBox="0 0 40 38" id="health-1" xmlns="http://www.w3.org/2000/svg"><path d="M12.12.618a12.098 12.098 0 0 0-8.573 3.548c-4.71 4.71-4.728 12.318-.063 17.057v.013l15.912 15.9a.86.86 0 0 0 1.208 0l15.912-15.9v-.013c4.665-4.738 4.647-12.346-.063-17.057A12.086 12.086 0 0 0 27.994.618c-2.882-.026-5.678.846-7.988 2.873C17.726 1.485 14.971.618 12.12.618zm0 1.717a10.33 10.33 0 0 1 7.276 3.002.86.86 0 0 0 1.208 0 10.35 10.35 0 0 1 14.628.05 10.343 10.343 0 0 1 .05 14.628L20.007 35.304 4.718 20.014a10.343 10.343 0 0 1 .05-14.627 10.359 10.359 0 0 1 7.352-3.052z" fill="#4C40F7"/><path d="M17.59 11.251a.862.862 0 0 0-.7.585l-2.11 6.296H8.507a.861.861 0 0 0-.852.865.861.861 0 0 0 .852.865h6.894a.862.862 0 0 0 .814-.585l1.489-4.452 3.777 11.333a.862.862 0 0 0 1.628 0l2.112-6.296h6.27a.861.861 0 0 0 .853-.865.862.862 0 0 0-.853-.865H24.6a.861.861 0 0 0-.827.598l-1.476 4.452-3.777-11.346a.862.862 0 0 0-.929-.585z" fill="#4C40F7"/></svg><svg fill="none" viewBox="0 0 40 40" id="health-2" xmlns="http://www.w3.org/2000/svg"><path d="M39.952 22.298a4.667 4.667 0 0 0-3.953-3.952v-1.212c0-3.344-2.541-6.067-5.666-6.067-3.035 0-5.575 2.64-5.667 5.886h.039l-.039.006v13.138c0 4.2-3.14 7.61-7 7.61s-7-3.415-7-7.61V28.96c.967 0 2-.7 2-2.666v-1.677C16.947 23.522 20 19.848 20 15.683v-1.39h-1.334l-.028-8.677a3.337 3.337 0 0 0-2.742-3.263 1.99 1.99 0 1 0-.046 1.36 2 2 0 0 1 1.453 1.907l.03 8.673H16v1.409a5.301 5.301 0 0 1-3.838 4.974 6.062 6.062 0 0 1-3.666 0 5.298 5.298 0 0 1-3.83-4.974v-1.41h-2V5.627a2 2 0 0 1 1.48-1.922 2.01 2.01 0 1 0-.04-1.354 3.333 3.333 0 0 0-2.773 3.276v8.667H0v1.386c0 4.17 3.057 7.846 7.333 8.937v1.677c0 1.966 1.034 2.666 2 2.666v1.138c0 4.933 3.738 8.944 8.333 8.944 4.596 0 8.334-4.015 8.334-8.944V16.991c.066-2.53 2.012-4.588 4.333-4.588 2.39 0 4.333 2.122 4.333 4.733v1.21a4.667 4.667 0 1 0 5.286 3.952zM14 3.626a.667.667 0 1 1 0-1.333.667.667 0 0 1 0 1.333zM6 2.293a.667.667 0 1 1 0 1.333.667.667 0 0 1 0-1.333zM1.333 15.679v-.053h2v.076a6.624 6.624 0 0 0 4.759 6.242 7.418 7.418 0 0 0 4.478 0 6.625 6.625 0 0 0 4.763-6.242v-.076h1.333v.053c0 3.709-2.858 6.972-6.8 7.762a9.512 9.512 0 0 1-3.733-.002c-3.941-.788-6.8-4.051-6.8-7.76zm8 11.947c-.6 0-.666-.934-.666-1.334v-1.414c.053.006.108.01.162.014.066.008.133.013.2.02.315.027.633.046.954.047h.033c.32 0 .637-.02.95-.048.067-.006.138-.011.207-.019.052-.005.107-.008.16-.014v1.415c0 .4-.067 1.333-.667 1.333H9.333zm26-1.334a3.333 3.333 0 1 1 0-6.666 3.333 3.333 0 0 1 0 6.666z" fill="#4C40F7"/></svg><svg fill="none" viewBox="0 0 40 40" id="health-3" xmlns="http://www.w3.org/2000/svg"><g clip-path="url(#aoa)"><path d="M39.405 7.952c-.201-.485-.67-.8-1.196-.8h-1.04a34.5 34.5 0 0 1-4.817-.338.586.586 0 0 0-.164 1.16c1.645.233 3.32.35 4.982.35h1.039c.02 0 .082 0 .113.077a.113.113 0 0 1-.026.134l-.822.822a2.55 2.55 0 0 1-1.816.752h-.754c-.998 0-1.938.389-2.644 1.095a2.55 2.55 0 0 1-1.815.752H28.91c-.503 0-1.006.104-1.469.3a3.325 3.325 0 0 0-2.107-.398 2.827 2.827 0 0 0-1.49.71c-.462.424-.723.97-.735 1.538l.003.129h-1.408V8.41l.013-.01a6.577 6.577 0 0 1 6.023-1.346c.69.19 1.393.36 2.092.507a.587.587 0 0 0 .242-1.147 34.623 34.623 0 0 1-2.024-.49 7.747 7.747 0 0 0-6.346 1.02V5.787a3.12 3.12 0 0 0 1.439-2.643A3.147 3.147 0 0 0 20 0a3.147 3.147 0 0 0-3.143 3.144c0 1.081.54 2.06 1.43 2.637V6.94a7.777 7.777 0 0 0-6.338-1.015A34.45 34.45 0 0 1 2.83 7.153H1.79c-.525 0-.995.314-1.196.8-.2.485-.09 1.039.281 1.41l.822.822a3.715 3.715 0 0 0 2.644 1.096h.754c.686 0 1.33.267 1.815.752a3.715 3.715 0 0 0 2.645 1.095h.59a4.026 4.026 0 0 0-.896.748c-.735.827-1.12 1.794-1.113 2.796a4.057 4.057 0 0 0 1.36 2.976c.726.637 1.62.964 2.474 1.244a.587.587 0 1 0 .365-1.114c-.738-.242-1.506-.52-2.065-1.01a2.869 2.869 0 0 1-.962-2.105c-.005-.707.277-1.402.817-2.009.238-.267.536-.491.91-.684.267-.137.548-.24.845-.348.162-.06.33-.12.5-.19.653-.263 1.415-.516 2.117-.39.54.096 1.128.538 1.135 1.084.005.33-.214.683-.544.878-.33.194-.778.254-1.231.164a6.015 6.015 0 0 1-.527-.14c-.518-.155-1.104-.33-1.73-.144-.57.17-1.013.646-1.184 1.275-.171.63-.032 1.265.373 1.7.374.4.884.58 1.257.711 2.013.71 4.064 1.393 6.103 2.036-.477.166-.967.356-1.435.605l-2.04-.672a.586.586 0 1 0-.365 1.114l1.216.4c-1.066 1.017-1.588 2.468-1.475 4.134.106 1.557 1.015 2.951 2.627 4.032-.345.271-.674.57-.973.905-.943 1.056-1.422 2.348-1.315 3.544.131 1.468 1.19 2.712 2.515 2.958a.585.585 0 0 0 .672-.729c-.282-1.051-.508-2.064-.162-2.898.177-.426.494-.779.873-1.08v5.372A1.71 1.71 0 0 0 19.995 40a1.71 1.71 0 0 0 1.709-1.709v-5.278c.376.327.637.668.789 1.032.383.92.09 2.057-.163 2.834a.586.586 0 0 0 .642.761c1.39-.204 2.5-1.52 2.58-3.062.064-1.224-.49-2.534-1.521-3.594a8.102 8.102 0 0 0-.893-.787c.802-.555 1.513-1.219 2.029-2.093.197-.334.356-.695.473-1.074.42-1.364.253-2.853-.449-3.982a4.793 4.793 0 0 0-.797-.968l3.552-1.17c.716-.237 1.528-.504 2.212-1.018 1.218-.913 1.84-2.531 1.545-4.025a4.102 4.102 0 0 0-1.143-2.097 4.164 4.164 0 0 0-.84-.642h.724a3.72 3.72 0 0 0 2.644-1.095 2.551 2.551 0 0 1 1.816-.752h.753c1 0 1.938-.39 2.645-1.096l.822-.821c.371-.372.481-.926.28-1.412zm-15.863 7.454c.234.319.553.587.93.763.673.313 1.495.344 2.316.087a8.3 8.3 0 0 0 .326-.111c.267-.096.52-.186.725-.17a.67.67 0 0 1 .558.479.767.767 0 0 1-.253.752c-.181.15-.46.241-.728.33l-5.711 1.89v-4.02h1.837zM18.03 3.144c0-1.087.884-1.972 1.971-1.972a1.974 1.974 0 0 1 .862 3.746.586.586 0 0 0-.33.527v14.369l-1.1.364A.585.585 0 0 0 19.46 20V5.44a.586.586 0 0 0-.327-.525 1.961 1.961 0 0 1-1.103-1.77zm-3.326 8.744c-.824-.147-1.624.04-2.333.294a3.72 3.72 0 0 0-1.28-.226H9.555a2.551 2.551 0 0 1-1.816-.752 3.715 3.715 0 0 0-2.644-1.095h-.754a2.55 2.55 0 0 1-1.816-.752l-.821-.822a.113.113 0 0 1-.027-.134c.031-.076.093-.076.114-.076H2.83c3.185 0 6.357-.428 9.428-1.27a6.6 6.6 0 0 1 5.884 1.229.583.583 0 0 0 .144.085v5.866h-1.485c.002-.042.003-.083.003-.125-.016-1.203-1.095-2.043-2.102-2.222zm-3.055 5.172c-.15-.16-.15-.411-.1-.592.049-.182.177-.398.387-.46.291-.087.648.02 1.062.143.203.06.412.122.632.166.743.148 1.473.04 2.056-.304.267-.158.496-.367.677-.607h1.925v4.015a194.865 194.865 0 0 1-5.851-1.956c-.287-.1-.611-.215-.788-.405zm8.348 21.768a.537.537 0 0 1-.537-.537v-6.104a2.75 2.75 0 0 1 .024-.013c.33-.172.676-.343 1.012-.509l.038-.018v6.644a.538.538 0 0 1-.537.537zm3.196-7.027c.803.826 1.238 1.816 1.19 2.716a2.288 2.288 0 0 1-.607 1.42c.122-.742.124-1.568-.2-2.343-.32-.768-.933-1.434-1.87-2.036v-.505c.119-.063.237-.127.355-.192.455.316.82.62 1.132.94zm1.005-8.134c.525.845.646 1.973.324 3.018-.09.291-.212.568-.363.824-.866 1.469-2.552 2.3-4.182 3.106a50.05 50.05 0 0 0-1.035.52c-1.014.529-2.117 1.23-2.609 2.416-.315.76-.31 1.564-.179 2.363a2.313 2.313 0 0 1-.596-1.35c-.078-.875.294-1.845 1.022-2.66.71-.796 1.66-1.377 2.58-1.886.199-.11.398-.217.598-.325.806-.436 1.64-.887 2.4-1.462.434-.33.972-.792 1.282-1.457.504-1.081.216-2.444-.686-3.24a3.646 3.646 0 0 0-.968-.594l1.29-.425c.483.339.851.715 1.122 1.151zm-2.492.546c.097.06.19.125.272.198.505.446.68 1.266.4 1.868-.127.272-.34.53-.672.813v-2.879zm-1.709-.683a.588.588 0 0 0 .12.055l.417.141v4.186c-.346.21-.705.41-1.074.61v-4.815l.055-.018.482-.16zm-1.709 3.713a2.584 2.584 0 0 1-.555-.477c-.502-.606-.467-1.638.073-2.209a2.13 2.13 0 0 1 .482-.37v3.056zm12.267-11.15c.206 1.046-.246 2.223-1.098 2.862-.53.398-1.215.624-1.876.842l-8.433 2.779c-.699.23-1.569.516-2.193 1.175-.953 1.007-1.009 2.694-.125 3.762.41.495.95.808 1.428 1.084l.03.016v.55a19.2 19.2 0 0 0-.561.333 8.959 8.959 0 0 1-.385-.243c-1.326-.885-2.04-1.944-2.121-3.146-.097-1.426.382-2.637 1.349-3.41.718-.576 1.652-.885 2.555-1.183l8.66-2.865c.336-.112.755-.25 1.106-.54.569-.47.826-1.256.64-1.957a1.832 1.832 0 0 0-1.6-1.346c-.457-.035-.858.109-1.21.235-.099.035-.191.068-.28.096-.543.17-1.066.158-1.473-.031-.404-.188-.693-.599-.685-.976.01-.45.48-1.003 1.222-1.111a2.14 2.14 0 0 1 1.21.18c.093.044.19.098.292.155.165.092.353.197.561.276.215.082.43.128.621.17a2.868 2.868 0 0 1 1.55.805c.419.414.709.943.816 1.488z" fill="#4C40F7"/></g><defs><clipPath id="aoa"><path fill="#fff" d="M0 0h40v40H0z"/></clipPath></defs></svg><svg fill="none" viewBox="0 0 40 40" id="health-4" xmlns="http://www.w3.org/2000/svg"><g clip-path="url(#apa)" fill="#4C40F7"><path d="m27.127 23.532-5.577-4.183v-8.52a1.549 1.549 0 1 0-3.099 0v9.295c0 .488.23.948.62 1.24l6.197 4.647c.278.209.604.31.928.31.472 0 .937-.213 1.24-.622a1.546 1.546 0 0 0-.31-2.167z"/><path d="M20 0C8.971 0 0 8.971 0 20s8.971 20 20 20 20-8.971 20-20S31.029 0 20 0zm0 36.902c-9.318 0-16.902-7.584-16.902-16.902 0-9.318 7.584-16.902 16.902-16.902 9.32 0 16.902 7.584 16.902 16.902 0 9.318-7.584 16.902-16.902 16.902z"/></g><defs><clipPath id="apa"><path fill="#fff" d="M0 0h40v40H0z"/></clipPath></defs></svg><svg fill="none" viewBox="0 0 14 14" id="health-check" xmlns="http://www.w3.org/2000/svg"><g clip-path="url(#aqa)"><path d="M5.36 12.23a.713.713 0 0 1-1.01 0L.314 8.193a1.072 1.072 0 0 1 0-1.516l.506-.505a1.072 1.072 0 0 1 1.516 0l2.52 2.52 6.808-6.81a1.072 1.072 0 0 1 1.517 0l.505.506a1.072 1.072 0 0 1 0 1.516L5.36 12.23z" fill="#4C40F7"/></g><defs><clipPath id="aqa"><path fill="#fff" d="M0 0h14v14H0z"/></clipPath></defs></svg><svg fill="none" viewBox="0 0 31 31" id="instagram" xmlns="http://www.w3.org/2000/svg"><g clip-path="url(#asa)" fill="#0067FF"><path d="M18.467 15.5a2.967 2.967 0 1 1-5.934 0 2.967 2.967 0 0 1 5.934 0z"/><path d="M22.438 10.251a2.76 2.76 0 0 0-.665-1.023 2.756 2.756 0 0 0-1.024-.666c-.313-.122-.785-.267-1.652-.306-.94-.043-1.22-.052-3.597-.052s-2.658.009-3.597.051c-.867.04-1.339.185-1.652.307-.387.143-.737.37-1.024.666a2.76 2.76 0 0 0-.666 1.023c-.121.314-.266.785-.306 1.653-.043.938-.052 1.22-.052 3.597 0 2.376.01 2.657.052 3.596.04.868.185 1.339.306 1.653.143.386.37.736.666 1.023.287.296.637.523 1.024.666.313.122.785.267 1.652.306.939.043 1.22.052 3.597.052s2.658-.009 3.596-.052c.868-.04 1.34-.184 1.653-.306.776-.3 1.39-.913 1.69-1.69.121-.313.266-.784.306-1.652.043-.939.052-1.22.052-3.597 0-2.376-.01-2.658-.052-3.596-.04-.868-.185-1.34-.307-1.653zm-6.938 9.82a4.57 4.57 0 1 1 0-9.141 4.57 4.57 0 0 1 0 9.14zm4.751-8.254a1.068 1.068 0 1 1 0-2.136 1.068 1.068 0 0 1 0 2.136z"/><path d="M15.5 0C6.94 0 0 6.94 0 15.5 0 24.06 6.94 31 15.5 31 24.06 31 31 24.06 31 15.5 31 6.94 24.06 0 15.5 0zm8.847 19.17c-.043.947-.194 1.594-.414 2.16a4.55 4.55 0 0 1-2.603 2.603c-.566.22-1.213.37-2.16.414-.95.043-1.253.053-3.67.053s-2.72-.01-3.67-.053c-.947-.044-1.594-.194-2.16-.414a4.36 4.36 0 0 1-1.576-1.027 4.362 4.362 0 0 1-1.027-1.576c-.22-.566-.37-1.213-.413-2.16-.044-.95-.054-1.253-.054-3.67s.01-2.72.053-3.67c.043-.947.194-1.594.414-2.16a4.36 4.36 0 0 1 1.027-1.576A4.36 4.36 0 0 1 9.67 7.067c.566-.22 1.213-.37 2.16-.414.95-.043 1.253-.053 3.67-.053s2.72.01 3.67.054c.947.043 1.594.193 2.16.413a4.363 4.363 0 0 1 1.577 1.027 4.36 4.36 0 0 1 1.026 1.576c.22.566.37 1.213.414 2.16.043.95.053 1.253.053 3.67s-.01 2.72-.053 3.67z"/></g><defs><clipPath id="asa"><path fill="#fff" d="M0 0h31v31H0z"/></clipPath></defs></svg><svg fill="none" viewBox="0 0 31 23" id="mail" xmlns="http://www.w3.org/2000/svg"><path d="M28.182.227H2.818A2.818 2.818 0 0 0 0 3.045v16.91a2.818 2.818 0 0 0 2.818 2.818h25.364A2.818 2.818 0 0 0 31 19.954V3.045A2.818 2.818 0 0 0 28.182.227zM2.818 1.637h25.364c.16 0 .32.029.472.084L16.458 13.916a1.346 1.346 0 0 1-1.91 0L2.347 1.721a1.41 1.41 0 0 1 .472-.085zM1.41 19.953V3.045a1.409 1.409 0 0 1 0-.246l8.722 8.7-8.722 8.702a1.408 1.408 0 0 1 0-.247zm26.773 1.41H2.818a1.41 1.41 0 0 1-.472-.085l8.786-8.786 2.416 2.417a2.755 2.755 0 0 0 3.896.007l.008-.007 2.416-2.417 8.786 8.786a1.407 1.407 0 0 1-.472.084zM29.59 20.2l-8.721-8.7 8.722-8.701a1.41 1.41 0 0 1 0 .246v16.91a1.41 1.41 0 0 1 0 .246z" fill="#0067FF"/></svg><svg fill="none" viewBox="0 0 25 25" id="services-1" xmlns="http://www.w3.org/2000/svg"><g clip-path="url(#aua)"><path d="M18.735 5.306 13.577.116A.39.39 0 0 0 13.3 0H2.002A1.613 1.613 0 0 0 .39 1.611V23.39A1.613 1.613 0 0 0 2 25h15.237a1.613 1.613 0 0 0 1.611-1.611v-7.627l5.092-5.093a2.29 2.29 0 1 0-3.237-3.237l-1.855 1.855V5.581a.39.39 0 0 0-.114-.275zm.72 4.48 2.133 2.132-7.476 7.476-2.133-2.132 7.476-7.476zm1.077-1.077 2.133 2.132-.525.525-2.132-2.133.524-.524zm-8.906 9.304 1.727 1.726-2.155.402.428-2.128zm2.257-16.481 3.413 3.434h-3.413V1.532zm4.185 21.857a.831.831 0 0 1-.83.83H2.002a.831.831 0 0 1-.83-.83V1.61a.83.83 0 0 1 .83-.83h11.1v4.575a.39.39 0 0 0 .39.391h4.576v4.321l-6.977 6.978a.39.39 0 0 0-.107.199l-.666 3.31a.39.39 0 0 0 .455.46l3.35-.624a.39.39 0 0 0 .205-.108l3.74-3.74v6.846zm5.32-15.404a1.513 1.513 0 0 1 0 2.132l-.17.171-2.133-2.132.171-.171a1.51 1.51 0 0 1 2.133 0zM9.866 18.31a.39.39 0 0 1-.39.39h-6.1a.39.39 0 1 1 0-.78h6.1a.388.388 0 0 1 .36.24.39.39 0 0 1 .03.15zm-6.88-3.404a.39.39 0 0 1 .391-.391h8.058a.39.39 0 1 1 0 .781H3.376a.39.39 0 0 1-.39-.39zm0-3.405a.39.39 0 0 1 .391-.39h12.488a.39.39 0 1 1 0 .78H3.376a.39.39 0 0 1-.39-.39zm0-3.404a.39.39 0 0 1 .391-.39h12.488a.39.39 0 0 1 0 .78H3.376a.39.39 0 0 1-.39-.39zm0-3.404a.39.39 0 0 1 .391-.39h8.27a.39.39 0 1 1 0 .78h-8.27a.39.39 0 0 1-.39-.39z" fill="#5D636B"/></g><defs><clipPath id="aua"><path fill="#fff" d="M0 0h25v25H0z"/></clipPath></defs></svg><svg fill="none" viewBox="0 0 25 25" id="services-2" xmlns="http://www.w3.org/2000/svg"><g clip-path="url(#ava)"><path d="M22.424 5.86a2.916 2.916 0 1 0-3.354.48 2.07 2.07 0 0 0-.74 1.58v3.333h-1.25V7.92a2.919 2.919 0 0 0-2.57-2.893 2.916 2.916 0 1 0-4.025 0 2.919 2.919 0 0 0-2.57 2.893v3.333h-1.25V7.92a2.07 2.07 0 0 0-.74-1.58 2.916 2.916 0 1 0-3.355-.48A2.919 2.919 0 0 0 0 8.753v6.25a2.916 2.916 0 0 0 1.666 2.63V25H2.5v-7.115c.137.02 2.917.033 2.917.033.23 0 .416.187.416.417V25h3.333v-7.915h2.916v7.082h-1.666V25h4.165v-.833h-1.666v-7.082h2.916V25h3.333v-6.665c0-.23.186-.417.416-.417 0 0 2.78-.014 2.916-.033V25h.833v-7.367a2.916 2.916 0 0 0 1.667-2.63v-6.25a2.919 2.919 0 0 0-2.57-2.893zM18.33 3.754a2.083 2.083 0 1 1 4.166 0 2.083 2.083 0 0 1-4.166 0zm-4.944 2.083-.888 1.334-.888-1.334h1.776zm-2.97-2.916a2.083 2.083 0 1 1 4.165 0 2.083 2.083 0 0 1-4.165 0zm-1.667 5a2.078 2.078 0 0 1 1.875-2.062l1.874 2.811 1.875-2.813a2.078 2.078 0 0 1 1.875 2.063v3.333H14.58v2.5h-4.165v-2.5H8.748V7.92zM2.5 3.753a2.083 2.083 0 1 1 4.166 0 2.083 2.083 0 0 1-4.166 0zm5.833 20.413H6.665v-5.832c0-.69-.56-1.25-1.25-1.25H2.917a2.085 2.085 0 0 1-2.083-2.083V8.753a2.085 2.085 0 0 1 2.083-2.082h1.666c.69 0 1.25.56 1.25 1.25v4.165h3.75v1.666h-5a.417.417 0 0 1-.416-.416v-5h-.833v5c0 .69.56 1.25 1.25 1.25H6.25a2.085 2.085 0 0 1 2.083 2.082v7.499zm.8-7.915a2.91 2.91 0 0 0-.847-1.666h8.424a2.91 2.91 0 0 0-.846 1.666H9.131zm15.03-1.25a2.085 2.085 0 0 1-2.083 2.083h-2.5c-.69 0-1.25.56-1.25 1.25v5.832h-1.666v-7.499a2.086 2.086 0 0 1 2.083-2.082h1.666c.69 0 1.25-.56 1.25-1.25v-5h-.833v5c0 .23-.187.416-.417.416h-4.999v-1.666h3.75V7.92c0-.69.56-1.25 1.25-1.25h1.666a2.085 2.085 0 0 1 2.083 2.083v6.25z" fill="#5D636B"/></g><defs><clipPath id="ava"><path fill="#fff" d="M0 0h25v25H0z"/></clipPath></defs></svg><svg fill="none" viewBox="0 0 25 25" id="services-3" xmlns="http://www.w3.org/2000/svg"><g clip-path="url(#awa)"><path d="m21.488 8.834-.85-.283a1.126 1.126 0 0 0-1.025.156c-.3.217-.472.553-.472.924v2.91c0 .624.507 1.13 1.13 1.13h.041v.594c0 .7-.532 1.278-1.212 1.352a1.956 1.956 0 0 0-1.913-1.555h-3.515v-3.124h2.437a2.039 2.039 0 0 0 2.026-1.806l.548-4.753A3.932 3.932 0 0 0 14.781 0h-4.562a3.932 3.932 0 0 0-3.902 4.379l.548 4.753a2.039 2.039 0 0 0 2.026 1.806h2.437v3.124H7.813c-.94 0-1.728.668-1.913 1.555a1.362 1.362 0 0 1-1.213-1.352v-.593h.03c.63 0 1.142-.513 1.142-1.143V9.631c0-.37-.172-.707-.472-.924a1.126 1.126 0 0 0-1.025-.156l-.85.283a1.136 1.136 0 0 0-.778 1.08v2.615c0 .63.513 1.143 1.143 1.143h.03v.593c0 1.13.88 2.058 1.99 2.135.18.894.97 1.569 1.915 1.569h3.125v2.343h-.78a2.738 2.738 0 0 0-2.714 2.404A1.173 1.173 0 0 0 7.813 25a1.173 1.173 0 0 0 1.101-1.57c.441-.021.88-.085 1.308-.192l1.558-.39c.47-.117.97-.117 1.44 0l1.558.39a6.7 6.7 0 0 0 1.307.191A1.173 1.173 0 0 0 17.188 25a1.173 1.173 0 0 0 .37-2.283 2.738 2.738 0 0 0-2.713-2.404h-.781V17.97h3.124c.946 0 1.736-.675 1.915-1.569a2.144 2.144 0 0 0 1.992-2.135v-.593h.041c.623 0 1.13-.507 1.13-1.13V9.914c0-.49-.312-.925-.777-1.08zM3.515 12.53V9.914c0-.154.098-.29.244-.339l.849-.283a.353.353 0 0 1 .321.05.353.353 0 0 1 .148.289v2.898c0 .2-.162.362-.361.362h-.84a.362.362 0 0 1-.361-.362zM7.64 9.042 7.093 4.29A3.15 3.15 0 0 1 10.219.781h4.562a3.15 3.15 0 0 1 3.126 3.508l-.549 4.753a1.258 1.258 0 0 1-1.25 1.114H8.892a1.259 1.259 0 0 1-1.25-1.114zm4.468 1.896h.782v3.124h-.782v-3.124zm-4.296 13.28a.391.391 0 1 1 0-.781.391.391 0 0 1 0 .782zm9.375 0a.391.391 0 1 1 0-.781.391.391 0 0 1 0 .782zm-.43-1.562H16.4a5.91 5.91 0 0 1-1.432-.176l-1.558-.39a3.756 3.756 0 0 0-1.82 0l-1.557.39c-.469.117-.95.176-1.433.176h-.358a1.957 1.957 0 0 1 1.914-1.562h4.688c.943 0 1.732.672 1.914 1.562zm-3.477-2.343h-1.56v-2.344h1.562v2.343zm3.906-3.125H7.813a1.173 1.173 0 0 1-1.172-1.172c0-.646.525-1.172 1.171-1.172h9.375a1.173 1.173 0 0 1 0 2.344zm4.297-4.646a.35.35 0 0 1-.349.349h-.864a.35.35 0 0 1-.35-.35v-2.91c0-.116.055-.222.149-.29a.354.354 0 0 1 .321-.049l.85.283a.356.356 0 0 1 .243.339v2.628z" fill="#F8FAFD"/></g><defs><clipPath id="awa"><path fill="#fff" d="M0 0h25v25H0z"/></clipPath></defs></svg><svg fill="none" viewBox="0 0 25 25" id="services-4" xmlns="http://www.w3.org/2000/svg"><g clip-path="url(#axa)" fill="#444"><path d="M5.333 14.583h-.826a1.25 1.25 0 0 0-1.174-.833H1.25C.56 13.75 0 14.31 0 15v8.75C0 24.44.56 25 1.25 25h2.083c.354-.001.69-.153.925-.417h10.45a3.33 3.33 0 0 0 1.733-.486l7.809-4.754a1.56 1.56 0 0 0-1.305-2.811c-8.686 2.896-7.713 2.635-8.345 2.635.505-1.401-.758-2.917-2.337-2.917h-2.18a3.396 3.396 0 0 1-2.115-.742 4.236 4.236 0 0 0-2.635-.925zm-2 9.584H1.25a.417.417 0 0 1-.417-.417V15c0-.23.187-.417.417-.417h2.083c.23 0 .417.187.417.417v8.75c0 .23-.187.417-.417.417zm8.93-7.084c1.106 0 2.065 1.197 1.405 2.084h-2.533a4.14 4.14 0 0 0-2.31.7l-.306.203a.417.417 0 1 0 .462.693A3.524 3.524 0 0 1 11.135 20c3.962 0 3.928.038 4.363-.107l7.713-2.57a.727.727 0 0 1 .608 1.308l-7.81 4.754a2.5 2.5 0 0 1-1.3.365H4.582v-8.333c.947 0 1.846-.073 2.865.742a4.235 4.235 0 0 0 2.635.924h2.18z"/><path d="M15.835 15.833c3.675 0 6.666-2.786 6.666-6.212 0-3.34-6.118-9.255-6.378-9.505a.417.417 0 0 0-.577 0c-.26.25-6.378 6.165-6.378 9.505 0 3.426 2.99 6.212 6.667 6.212zm0-14.833c1.865 1.85 5.833 6.273 5.833 8.622 0 2.965-2.617 5.378-5.833 5.378C12.618 15 10 12.587 10 9.621c0-2.348 3.969-6.773 5.834-8.62z"/><path d="M12.915 10.834h1.667V12.5c0 .46.373.834.833.834h.834c.46 0 .833-.374.833-.834v-1.666h1.667c.46 0 .833-.374.833-.834v-.833a.833.833 0 0 0-.833-.834h-1.667V6.667a.833.833 0 0 0-.833-.833h-.834a.833.833 0 0 0-.833.833v1.666h-1.667a.833.833 0 0 0-.833.834V10c0 .46.373.834.833.834zm0-1.667h1.667c.46 0 .833-.373.833-.834V6.667h.834v1.666c0 .46.373.834.833.834h1.667V10h-1.667a.833.833 0 0 0-.833.834V12.5h-.834v-1.666a.833.833 0 0 0-.833-.834h-1.667v-.833z"/></g><defs><clipPath id="axa"><path fill="#fff" d="M0 0h25v25H0z"/></clipPath></defs></svg><svg fill="none" viewBox="0 0 50 50" id="slider-left" xmlns="http://www.w3.org/2000/svg"><rect opacity=".5" x="-.5" y=".5" width="49" height="49" rx="7.5" transform="matrix(-1 0 0 1 49 0)" stroke="#4C40F7" stroke-opacity=".4"/><path d="m27 19.983-5 4.97 5 4.972" stroke="#4C40F7" stroke-opacity=".4" stroke-width="2" stroke-linecap="round" stroke-linejoin="round"/></svg><svg fill="none" viewBox="0 0 50 50" id="slider-right" xmlns="http://www.w3.org/2000/svg"><mask id="aza" fill="#fff"><rect width="50" height="50" rx="8"/></mask><rect width="50" height="50" rx="8" fill="#4C40F7" stroke="#4C40F7" stroke-width="50" mask="url(#aza)"/><path d="m23 19.983 5 4.97-5 4.972" stroke="#fff" stroke-width="2" stroke-linecap="round" stroke-linejoin="round"/></svg><svg fill="none" viewBox="0 0 31 31" id="tell" xmlns="http://www.w3.org/2000/svg"><g clip-path="url(#baa)" fill="#0067FF"><path d="M24.5 19.203c-.634-.66-1.4-1.014-2.21-1.014-.806 0-1.578.347-2.238 1.008l-2.068 2.06c-.17-.09-.34-.176-.504-.261a8.316 8.316 0 0 1-.648-.347c-1.936-1.23-3.696-2.833-5.384-4.907-.818-1.034-1.368-1.904-1.767-2.787.537-.49 1.034-1.001 1.518-1.492.183-.183.367-.373.55-.556 1.374-1.374 1.374-3.154 0-4.528L9.963 4.593a27.25 27.25 0 0 1-.609-.621 30.899 30.899 0 0 0-1.23-1.217c-.635-.628-1.393-.962-2.192-.962-.798 0-1.57.334-2.224.962l-.013.013L1.47 5.012A4.787 4.787 0 0 0 .05 8.054c-.157 1.91.406 3.69.838 4.855 1.06 2.86 2.643 5.51 5.005 8.349 2.866 3.422 6.314 6.124 10.253 8.028 1.504.713 3.513 1.557 5.757 1.7.138.007.282.014.412.014 1.512 0 2.781-.543 3.776-1.623.006-.013.02-.02.026-.032.34-.413.732-.786 1.145-1.185.281-.268.569-.55.85-.844.648-.674.988-1.459.988-2.264 0-.81-.347-1.59-1.007-2.244L24.5 19.203zm2.343 6.89c-.007 0-.007.006 0 0-.255.275-.517.523-.798.798-.426.406-.857.83-1.263 1.309-.66.706-1.44 1.04-2.46 1.04-.098 0-.203 0-.301-.007-1.943-.124-3.749-.883-5.103-1.53-3.704-1.793-6.955-4.338-9.658-7.564-2.23-2.69-3.722-5.175-4.71-7.845-.609-1.629-.831-2.898-.733-4.096.065-.765.36-1.4.903-1.943l2.23-2.231c.321-.3.662-.464.995-.464.413 0 .746.248.956.458l.02.02c.398.372.778.758 1.177 1.17.203.21.412.419.622.635l1.786 1.786c.693.694.693 1.335 0 2.028-.19.19-.373.38-.563.563a34.176 34.176 0 0 1-1.642 1.596c-.013.014-.026.02-.033.033-.563.563-.458 1.112-.34 1.485l.02.06c.464 1.125 1.118 2.185 2.113 3.447l.006.007c1.806 2.224 3.71 3.958 5.81 5.286.269.17.543.308.805.439.236.118.458.229.648.347.026.013.052.032.078.045.223.112.432.164.648.164.543 0 .883-.34.994-.452l2.238-2.237c.223-.223.576-.49.988-.49.406 0 .74.254.942.477l.013.013 3.605 3.605c.674.667.674 1.354.007 2.048zM16.754 7.374a8.297 8.297 0 0 1 4.515 2.343 8.34 8.34 0 0 1 2.342 4.514.878.878 0 0 0 .87.733c.053 0 .098-.007.15-.013a.884.884 0 0 0 .727-1.02 10.091 10.091 0 0 0-2.833-5.464 10.091 10.091 0 0 0-5.463-2.833.888.888 0 0 0-1.02.72.874.874 0 0 0 .712 1.02zm14.211 6.301A16.601 16.601 0 0 0 26.3 4.678 16.602 16.602 0 0 0 17.303.013a.88.88 0 0 0-1.014.72.887.887 0 0 0 .726 1.02c3.05.518 5.83 1.964 8.041 4.169a14.823 14.823 0 0 1 4.168 8.04.878.878 0 0 0 .87.733c.053 0 .098-.006.15-.013a.867.867 0 0 0 .72-1.007z"/></g><defs><clipPath id="baa"><path fill="#fff" d="M0 0h31v31H0z"/></clipPath></defs></svg><svg fill="none" viewBox="0 0 31 31" id="twitter" xmlns="http://www.w3.org/2000/svg"><g clip-path="url(#bca)"><path fill-rule="evenodd" clip-rule="evenodd" d="M21.663 12.339c.006.137.01.273.01.412 0 4.201-3.199 9.047-9.048 9.047A9.004 9.004 0 0 1 7.75 20.37c.249.029.502.043.759.043 1.49 0 2.86-.507 3.95-1.36a3.183 3.183 0 0 1-2.972-2.208 3.21 3.21 0 0 0 1.437-.056 3.18 3.18 0 0 1-2.551-3.117v-.04c.428.238.92.381 1.44.397a3.18 3.18 0 0 1-.984-4.246 9.029 9.029 0 0 0 6.555 3.323 3.18 3.18 0 0 1 5.418-2.9 6.363 6.363 0 0 0 2.02-.771 3.195 3.195 0 0 1-1.398 1.759 6.382 6.382 0 0 0 1.826-.5 6.475 6.475 0 0 1-1.587 1.645zM15.5 0C6.94 0 0 6.94 0 15.5 0 24.06 6.94 31 15.5 31 24.06 31 31 24.06 31 15.5 31 6.94 24.06 0 15.5 0" fill="#0067FF"/></g><defs><clipPath id="bca"><path fill="#fff" d="M0 0h31v31H0z"/></clipPath></defs></svg><svg fill="none" viewBox="0 0 32 32" id="twitter-footer" xmlns="http://www.w3.org/2000/svg"><path fill-rule="evenodd" clip-rule="evenodd" d="M0 16C0 7.163 7.163 0 16 0s16 7.163 16 16-7.163 16-16 16S0 24.837 0 16z" fill="#4C40F7"/><path fill-rule="evenodd" clip-rule="evenodd" d="M16 0C7.163 0 0 7.163 0 16s7.163 16 16 16 16-7.163 16-16S24.837 0 16 0zm.222 13.558-.033-.553c-.101-1.435.783-2.746 2.182-3.254.515-.181 1.388-.204 1.959-.046.224.068.649.294.951.498l.548.372.605-.192c.335-.101.783-.27.985-.384.19-.102.358-.158.358-.124 0 .192-.414.847-.761 1.209-.47.508-.336.553.615.215.571-.193.582-.193.47.022-.067.113-.414.508-.783.87-.627.621-.66.69-.66 1.21 0 .801-.381 2.473-.762 3.389-.705 1.717-2.215 3.491-3.726 4.384-2.127 1.254-4.958 1.57-7.342.836-.795-.249-2.16-.882-2.16-.995 0-.034.414-.079.918-.09a6.302 6.302 0 0 0 3-.836l.603-.362-.694-.237c-.984-.339-1.868-1.118-2.092-1.853-.068-.237-.045-.248.582-.248l.649-.012-.549-.26c-.649-.327-1.242-.881-1.533-1.446-.213-.407-.481-1.435-.403-1.514.023-.034.258.034.526.124.772.283.873.215.425-.26-.839-.858-1.096-2.135-.693-3.344l.19-.542.739.734c1.51 1.48 3.29 2.362 5.327 2.622l.56.067z" fill="#fff"/></svg><svg fill="none" viewBox="0 0 59 59" id="works-1" xmlns="http://www.w3.org/2000/svg"><circle cx="29.5" cy="29.5" r="29.5" fill="#4C40F7"/><g clip-path="url(#bda)"><path d="M43.418 24.587c-.846-.846-2.38-.82-3.258.057l-1.722 1.723V17.28a2.346 2.346 0 0 0-2.344-2.343H23.437a.937.937 0 0 0-.662.274l-6.563 6.563a.937.937 0 0 0-.274.663v18.28a2.346 2.346 0 0 0 2.343 2.344h17.813a2.346 2.346 0 0 0 2.343-2.343v-7.95l4.924-4.924c.914-.914.94-2.375.057-3.258zm-4.413 3.864.55.549-5.793 5.792-1.098.549.549-1.098 5.792-5.792zM22.5 18.138v2.893a.475.475 0 0 1-.469.469h-2.893l3.362-3.362zm14.063 22.58a.475.475 0 0 1-.47.47H18.282a.475.475 0 0 1-.468-.47V23.376h4.218a2.346 2.346 0 0 0 2.344-2.344v-4.218h11.719c.254 0 .468.214.468.468v10.96l-4.782 4.784a.95.95 0 0 0-.176.243l-1.875 3.75a.938.938 0 0 0 1.258 1.258l3.75-1.875a.92.92 0 0 0 .243-.176l1.583-1.582v6.076zm5.472-14.2-1.155 1.156-.55-.549 1.156-1.155c.15-.15.384-.279.606-.057.15.15.123.427-.056.606zM24.1 26.463a.937.937 0 0 1 0 1.326l-1.875 1.875a.934.934 0 0 1-1.325 0l-.938-.938a.937.937 0 1 1 1.326-1.325l.274.274 1.213-1.212a.937.937 0 0 1 1.325 0zm0 4.688a.937.937 0 0 1 0 1.325l-1.875 1.875a.934.934 0 0 1-1.325 0l-.938-.937a.937.937 0 1 1 1.326-1.326l.274.275 1.213-1.212a.937.937 0 0 1 1.325 0zm0 4.687a.937.937 0 0 1 0 1.326l-1.875 1.875a.934.934 0 0 1-1.325 0l-.938-.938a.937.937 0 1 1 1.326-1.325l.274.274 1.213-1.212a.937.937 0 0 1 1.325 0zm1.212-7.775c0-.518.42-.937.938-.937h7.5a.937.937 0 1 1 0 1.875h-7.5a.937.937 0 0 1-.938-.938zm3.75 5.625H26.25a.937.937 0 1 1 0-1.874h2.813a.937.937 0 1 1 0 1.875zm0 3.75c0 .519-.42.938-.937.938H26.25a.937.937 0 1 1 0-1.875h1.875c.518 0 .938.42.938.938z" fill="#fff"/></g><defs><clipPath id="bda"><path fill="#fff" transform="translate(15 14)" d="M0 0h30v30H0z"/></clipPath></defs></svg><svg fill="none" viewBox="0 0 59 59" id="works-2" xmlns="http://www.w3.org/2000/svg"><circle cx="29.5" cy="29.5" r="29.5" fill="#4C40F7"/><path d="M28.963 25.82h-1.796v-1.796a.3.3 0 0 0-.3-.3H24.13a.3.3 0 0 0-.3.3v1.796h-1.796a.3.3 0 0 0-.3.3v2.737a.3.3 0 0 0 .3.3h1.796v1.796a.3.3 0 0 0 .3.3h2.737a.3.3 0 0 0 .3-.3v-1.796h1.796a.3.3 0 0 0 .3-.3V26.12a.3.3 0 0 0-.3-.3zm-.3 2.737h-1.796a.3.3 0 0 0-.3.3v1.796H24.43v-1.796a.3.3 0 0 0-.3-.3h-1.796V26.42h1.796a.3.3 0 0 0 .3-.3v-1.796h2.137v1.796a.3.3 0 0 0 .3.3h1.796v2.137z" fill="#fff"/><path d="M18.3 37.977H27V40.7a.3.3 0 0 0 .3.3h14.4a.3.3 0 0 0 .3-.3V20.323a.3.3 0 0 0-.3-.3h-2.115v-.463c.549-.222.9-.793.824-1.4-.082-.661-.672-1.16-1.372-1.16h-3.273c-.7 0-1.289.499-1.371 1.16a1.337 1.337 0 0 0 .824 1.4v.463H33V17.3a.3.3 0 0 0-.3-.3H18.3a.3.3 0 0 0-.3.3v20.377a.3.3 0 0 0 .3.3zm13.244 0L27.6 40.173v-2.196h3.944zm3.444-19.742c.044-.356.386-.635.776-.635h3.273c.391 0 .733.279.777.635a.726.726 0 0 1-.587.809.3.3 0 0 0-.242.294v15.966a1.58 1.58 0 0 1-1.584 1.571 1.58 1.58 0 0 1-1.584-1.57V19.337a.3.3 0 0 0-.242-.294.726.726 0 0 1-.587-.81zm.229 2.388v14.681a2.18 2.18 0 0 0 2.184 2.171 2.18 2.18 0 0 0 2.184-2.17V20.622H41.4V40.4H28.426l4.42-2.46c.012-.007.02-.018.03-.026a.255.255 0 0 0 .047-.04.294.294 0 0 0 .031-.047c.01-.017.02-.032.026-.05.007-.02.01-.04.012-.061.002-.013.008-.025.008-.039V20.623h2.217zM18.6 17.6h13.8v19.777H18.6V17.6z" fill="#fff"/><path d="M37.866 28.684a.3.3 0 0 0 .3-.3V27.28a.3.3 0 1 0-.6 0v1.104a.3.3 0 0 0 .3.3zm0 4.958a.3.3 0 0 0 .3-.3v-3.26a.3.3 0 1 0-.6 0v3.26a.3.3 0 0 0 .3.3z" fill="#fff"/></svg><svg fill="none" viewBox="0 0 59 59" id="works-3" xmlns="http://www.w3.org/2000/svg"><circle cx="29.5" cy="29.5" r="29.5" fill="#4C40F7"/><path d="M32.5 16.5h-5a3.75 3.75 0 0 0-3.75 3.75v1.25h-2.5a3.75 3.75 0 0 0-3.75 3.75v12.5a3.75 3.75 0 0 0 3.75 3.75h17.5a3.75 3.75 0 0 0 3.75-3.75v-12.5a3.75 3.75 0 0 0-3.75-3.75h-2.5v-1.25a3.75 3.75 0 0 0-3.75-3.75zm-6.25 3.75A1.25 1.25 0 0 1 27.5 19h5a1.25 1.25 0 0 1 1.25 1.25v1.25h-7.5v-1.25zm13.75 5v12.5A1.25 1.25 0 0 1 38.75 39h-17.5A1.25 1.25 0 0 1 20 37.75v-12.5A1.25 1.25 0 0 1 21.25 24h17.5A1.25 1.25 0 0 1 40 25.25z" fill="#fff"/><path d="M31.25 27.75h-2.5v2.5h-2.5v2.5h2.5v2.5h2.5v-2.5h2.5v-2.5h-2.5v-2.5z" fill="#fff"/></svg><svg fill="none" viewBox="0 0 31 31" id="youtube" xmlns="http://www.w3.org/2000/svg"><g clip-path="url(#bha)" fill="#0067FF"><path d="m13.352 18 4.299-2.494-4.3-2.507V18z"/><path d="M15.5 0a15.5 15.5 0 1 0 0 31 15.5 15.5 0 0 0 0-31zm8.158 18.243a3.088 3.088 0 0 1-3.086 3.088H10.428a3.086 3.086 0 0 1-3.086-3.088v-5.486a3.086 3.086 0 0 1 3.086-3.088h10.144a3.086 3.086 0 0 1 3.086 3.088v5.486z"/></g><defs><clipPath id="bha"><path fill="#fff" d="M0 0h31v31H0z"/></clipPath></defs></svg><svg fill="none" viewBox="0 0 32 32" id="youtube-footer" xmlns="http://www.w3.org/2000/svg"><path fill-rule="evenodd" clip-rule="evenodd" d="M0 16C0 7.163 7.163 0 16 0s16 7.163 16 16-7.163 16-16 16S0 24.837 0 16z" fill="#4C40F7"/><path fill-rule="evenodd" clip-rule="evenodd" d="M16 0C7.163 0 0 7.163 0 16s7.163 16 16 16 16-7.163 16-16S24.837 0 16 0zm6.668 10.5a2.167 2.167 0 0 1 1.509 1.55c.357 1.366.357 4.217.357 4.217s0 2.851-.357 4.218a2.167 2.167 0 0 1-1.51 1.55C21.338 22.4 16 22.4 16 22.4s-5.337 0-6.668-.367a2.167 2.167 0 0 1-1.509-1.549c-.356-1.367-.356-4.218-.356-4.218s0-2.851.356-4.218a2.167 2.167 0 0 1 1.51-1.549c1.33-.366 6.667-.366 6.667-.366s5.337 0 6.668.366z" fill="#fff"/><path fill-rule="evenodd" clip-rule="evenodd" d="M14.4 19.2v-5.334l4.267 2.667-4.267 2.666z" fill="#fff"/></svg></svg>