<svg width="31" height="31" fill="none" xmlns="http://www.w3.org/2000/svg"><g clip-path="url(#clip0_1_15)" fill="#0067FF"><path d="M24.5 19.203c-.634-.66-1.4-1.014-2.21-1.014-.806 0-1.578.347-2.238 1.008l-2.068 2.06c-.17-.09-.34-.176-.504-.261a8.316 8.316 0 01-.648-.347c-1.936-1.23-3.696-2.833-5.384-4.907-.818-1.034-1.368-1.904-1.767-2.787.537-.49 1.034-1.001 1.518-1.492.183-.183.367-.373.55-.556 1.374-1.374 1.374-3.154 0-4.528L9.963 4.593a27.25 27.25 0 01-.609-.621 30.899 30.899 0 00-1.23-1.217c-.635-.628-1.393-.962-2.192-.962-.798 0-1.57.334-2.224.962l-.013.013L1.47 5.012A4.787 4.787 0 00.05 8.054c-.157 1.91.406 3.69.838 4.855 1.06 2.86 2.643 5.51 5.005 8.349 2.866 3.422 6.314 6.124 10.253 8.028 1.504.713 3.513 1.557 5.757 1.7.138.007.282.014.412.014 1.512 0 2.781-.543 3.776-1.623.006-.013.02-.02.026-.032.34-.413.732-.786 1.145-1.185.281-.268.569-.55.85-.844.648-.674.988-1.459.988-2.264 0-.81-.347-1.59-1.007-2.244L24.5 19.203zm2.343 6.89c-.007 0-.007.006 0 0-.255.275-.517.523-.798.798-.426.406-.857.83-1.263 1.309-.66.706-1.44 1.04-2.46 1.04-.098 0-.203 0-.301-.007-1.943-.124-3.749-.883-5.103-1.53-3.704-1.793-6.955-4.338-9.658-7.564-2.23-2.69-3.722-5.175-4.71-7.845-.609-1.629-.831-2.898-.733-4.096.065-.765.36-1.4.903-1.943l2.23-2.231c.321-.3.662-.464.995-.464.413 0 .746.248.956.458l.02.02c.398.372.778.758 1.177 1.17.203.21.412.419.622.635l1.786 1.786c.693.694.693 1.335 0 2.028-.19.19-.373.38-.563.563a34.176 34.176 0 01-1.642 1.596c-.013.014-.026.02-.033.033-.563.563-.458 1.112-.34 1.485l.02.06c.464 1.125 1.118 2.185 2.113 3.447l.006.007c1.806 2.224 3.71 3.958 5.81 5.286.269.17.543.308.805.439.236.118.458.229.648.347.026.013.052.032.078.045.223.112.432.164.648.164.543 0 .883-.34.994-.452l2.238-2.237c.223-.223.576-.49.988-.49.406 0 .74.254.942.477l.013.013 3.605 3.605c.674.667.674 1.354.007 2.048zM16.754 7.374a8.297 8.297 0 014.515 2.343 8.34 8.34 0 012.342 4.514.878.878 0 00.87.733c.053 0 .098-.007.15-.013a.884.884 0 00.727-1.02 10.091 10.091 0 00-2.833-5.464 10.091 10.091 0 00-5.463-2.833.888.888 0 00-1.02.72.874.874 0 00.712 1.02zm14.211 6.301A16.601 16.601 0 0026.3 4.678 16.602 16.602 0 0017.303.013a.88.88 0 00-1.014.72.887.887 0 00.726 1.02c3.05.518 5.83 1.964 8.041 4.169a14.823 14.823 0 014.168 8.04.878.878 0 00.87.733c.053 0 .098-.006.15-.013a.867.867 0 00.72-1.007z"/></g><defs><clipPath id="clip0_1_15"><path fill="#fff" d="M0 0h31v31H0z"/></clipPath></defs></svg>