<svg width="32" height="32" fill="none" xmlns="http://www.w3.org/2000/svg"><path fill-rule="evenodd" clip-rule="evenodd" d="M0 16C0 7.163 7.163 0 16 0s16 7.163 16 16-7.163 16-16 16S0 24.837 0 16z" fill="#4C40F7"/><path fill-rule="evenodd" clip-rule="evenodd" d="M16 0C7.163 0 0 7.163 0 16s7.163 16 16 16 16-7.163 16-16S24.837 0 16 0zm.222 13.558l-.033-.553c-.101-1.435.783-2.746 2.182-3.254.515-.181 1.388-.204 1.959-.046.224.068.649.294.951.498l.548.372.605-.192c.335-.101.783-.27.985-.384.19-.102.358-.158.358-.124 0 .192-.414.847-.761 1.209-.47.508-.336.553.615.215.571-.193.582-.193.47.022-.067.113-.414.508-.783.87-.627.621-.66.69-.66 1.21 0 .801-.381 2.473-.762 3.389-.705 1.717-2.215 3.491-3.726 4.384-2.127 1.254-4.958 1.57-7.342.836-.795-.249-2.16-.882-2.16-.995 0-.034.414-.079.918-.09a6.302 6.302 0 003-.836l.603-.362-.694-.237c-.984-.339-1.868-1.118-2.092-1.853-.068-.237-.045-.248.582-.248l.649-.012-.549-.26c-.649-.327-1.242-.881-1.533-1.446-.213-.407-.481-1.435-.403-1.514.023-.034.258.034.526.124.772.283.873.215.425-.26-.839-.858-1.096-2.135-.693-3.344l.19-.542.739.734c1.51 1.48 3.29 2.362 5.327 2.622l.56.067z" fill="#fff"/></svg>