<svg width="31" height="31" fill="none" xmlns="http://www.w3.org/2000/svg"><g clip-path="url(#clip0_1_33)"><path fill-rule="evenodd" clip-rule="evenodd" d="M21.663 12.339c.006.137.01.273.01.412 0 4.201-3.199 9.047-9.048 9.047A9.004 9.004 0 017.75 20.37c.249.029.502.043.759.043 1.49 0 2.86-.507 3.95-1.36a3.183 3.183 0 01-2.972-2.208 3.21 3.21 0 001.437-.056 3.18 3.18 0 01-2.551-3.117v-.04c.428.238.92.381 1.44.397a3.18 3.18 0 01-.984-4.246 9.029 9.029 0 006.555 3.323 3.18 3.18 0 015.418-2.9 6.363 6.363 0 002.02-.771 3.195 3.195 0 01-1.398 1.759 6.382 6.382 0 001.826-.5 6.475 6.475 0 01-1.587 1.645zM15.5 0C6.94 0 0 6.94 0 15.5 0 24.06 6.94 31 15.5 31 24.06 31 31 24.06 31 15.5 31 6.94 24.06 0 15.5 0" fill="#0067FF"/></g><defs><clipPath id="clip0_1_33"><path fill="#fff" d="M0 0h31v31H0z"/></clipPath></defs></svg>