<svg width="59" height="59" fill="none" xmlns="http://www.w3.org/2000/svg"><circle cx="29.5" cy="29.5" r="29.5" fill="#4C40F7"/><path d="M32.5 16.5h-5a3.75 3.75 0 00-3.75 3.75v1.25h-2.5a3.75 3.75 0 00-3.75 3.75v12.5a3.75 3.75 0 003.75 3.75h17.5a3.75 3.75 0 003.75-3.75v-12.5a3.75 3.75 0 00-3.75-3.75h-2.5v-1.25a3.75 3.75 0 00-3.75-3.75zm-6.25 3.75A1.25 1.25 0 0127.5 19h5a1.25 1.25 0 011.25 1.25v1.25h-7.5v-1.25zm13.75 5v12.5A1.25 1.25 0 0138.75 39h-17.5A1.25 1.25 0 0120 37.75v-12.5A1.25 1.25 0 0121.25 24h17.5A1.25 1.25 0 0140 25.25z" fill="#fff"/><path d="M31.25 27.75h-2.5v2.5h-2.5v2.5h2.5v2.5h2.5v-2.5h2.5v-2.5h-2.5v-2.5z" fill="#fff"/></svg>