<svg width="59" height="59" fill="none" xmlns="http://www.w3.org/2000/svg"><circle cx="29.5" cy="29.5" r="29.5" fill="#4C40F7"/><g clip-path="url(#clip0_1_197)"><path d="M43.418 24.587c-.846-.846-2.38-.82-3.258.057l-1.722 1.723V17.28a2.346 2.346 0 00-2.344-2.343H23.437a.937.937 0 00-.662.274l-6.563 6.563a.937.937 0 00-.274.663v18.28a2.346 2.346 0 002.343 2.344h17.813a2.346 2.346 0 002.343-2.343v-7.95l4.924-4.924c.914-.914.94-2.375.057-3.258zm-4.413 3.864l.55.549-5.793 5.792-1.098.549.549-1.098 5.792-5.792zM22.5 18.138v2.893a.475.475 0 01-.469.469h-2.893l3.362-3.362zm14.063 22.58a.475.475 0 01-.47.47H18.282a.475.475 0 01-.468-.47V23.376h4.218a2.346 2.346 0 002.344-2.344v-4.218h11.719c.254 0 .468.214.468.468v10.96l-4.782 4.784a.95.95 0 00-.176.243l-1.875 3.75a.938.938 0 001.258 1.258l3.75-1.875a.92.92 0 00.243-.176l1.583-1.582v6.076zm5.472-14.2l-1.155 1.156-.55-.549 1.156-1.155c.15-.15.384-.279.606-.057.15.15.123.427-.056.606zM24.1 26.463a.937.937 0 010 1.326l-1.875 1.875a.934.934 0 01-1.325 0l-.938-.938a.937.937 0 111.326-1.325l.274.274 1.213-1.212a.937.937 0 011.325 0zm0 4.688a.937.937 0 010 1.325l-1.875 1.875a.934.934 0 01-1.325 0l-.938-.937a.937.937 0 111.326-1.326l.274.275 1.213-1.212a.937.937 0 011.325 0zm0 4.687a.937.937 0 010 1.326l-1.875 1.875a.934.934 0 01-1.325 0l-.938-.938a.937.937 0 111.326-1.325l.274.274 1.213-1.212a.937.937 0 011.325 0zm1.212-7.775c0-.518.42-.937.938-.937h7.5a.937.937 0 110 1.875h-7.5a.937.937 0 01-.938-.938zm3.75 5.625H26.25a.937.937 0 110-1.874h2.813a.937.937 0 110 1.875zm0 3.75c0 .519-.42.938-.937.938H26.25a.937.937 0 110-1.875h1.875c.518 0 .938.42.938.938z" fill="#fff"/></g><defs><clipPath id="clip0_1_197"><path fill="#fff" transform="translate(15 14)" d="M0 0h30v30H0z"/></clipPath></defs></svg>