<svg width="59" height="59" fill="none" xmlns="http://www.w3.org/2000/svg"><circle cx="29.5" cy="29.5" r="29.5" fill="#4C40F7"/><path d="M28.963 25.82h-1.796v-1.796a.3.3 0 00-.3-.3H24.13a.3.3 0 00-.3.3v1.796h-1.796a.3.3 0 00-.3.3v2.737a.3.3 0 00.3.3h1.796v1.796a.3.3 0 00.3.3h2.737a.3.3 0 00.3-.3v-1.796h1.796a.3.3 0 00.3-.3V26.12a.3.3 0 00-.3-.3zm-.3 2.737h-1.796a.3.3 0 00-.3.3v1.796H24.43v-1.796a.3.3 0 00-.3-.3h-1.796V26.42h1.796a.3.3 0 00.3-.3v-1.796h2.137v1.796a.3.3 0 00.3.3h1.796v2.137z" fill="#fff"/><path d="M18.3 37.977H27V40.7a.3.3 0 00.3.3h14.4a.3.3 0 00.3-.3V20.323a.3.3 0 00-.3-.3h-2.115v-.463c.549-.222.9-.793.824-1.4-.082-.661-.672-1.16-1.372-1.16h-3.273c-.7 0-1.289.499-1.371 1.16a1.337 1.337 0 00.824 1.4v.463H33V17.3a.3.3 0 00-.3-.3H18.3a.3.3 0 00-.3.3v20.377a.3.3 0 00.3.3zm13.244 0L27.6 40.173v-2.196h3.944zm3.444-19.742c.044-.356.386-.635.776-.635h3.273c.391 0 .733.279.777.635a.726.726 0 01-.587.809.3.3 0 00-.242.294v15.966a1.58 1.58 0 01-1.584 1.571 1.58 1.58 0 01-1.584-1.57V19.337a.3.3 0 00-.242-.294.726.726 0 01-.587-.81zm.229 2.388v14.681a2.18 2.18 0 002.184 2.171 2.18 2.18 0 002.184-2.17V20.622H41.4V40.4H28.426l4.42-2.46c.012-.007.02-.018.03-.026a.255.255 0 00.047-.04.294.294 0 00.031-.047c.01-.017.02-.032.026-.05.007-.02.01-.04.012-.061.002-.013.008-.025.008-.039V20.623h2.217zM18.6 17.6h13.8v19.777H18.6V17.6z" fill="#fff"/><path d="M37.866 28.684a.3.3 0 00.3-.3V27.28a.3.3 0 10-.6 0v1.104a.3.3 0 00.3.3zm0 4.958a.3.3 0 00.3-.3v-3.26a.3.3 0 10-.6 0v3.26a.3.3 0 00.3.3z" fill="#fff"/></svg>