<svg width="32" height="32" fill="none" xmlns="http://www.w3.org/2000/svg"><path fill-rule="evenodd" clip-rule="evenodd" d="M0 16C0 7.163 7.163 0 16 0s16 7.163 16 16-7.163 16-16 16S0 24.837 0 16z" fill="#4C40F7"/><path fill-rule="evenodd" clip-rule="evenodd" d="M16 0C7.163 0 0 7.163 0 16s7.163 16 16 16 16-7.163 16-16S24.837 0 16 0zm6.668 10.5a2.167 2.167 0 011.509 1.55c.357 1.366.357 4.217.357 4.217s0 2.851-.357 4.218a2.167 2.167 0 01-1.51 1.55C21.338 22.4 16 22.4 16 22.4s-5.337 0-6.668-.367a2.167 2.167 0 01-1.509-1.549c-.356-1.367-.356-4.218-.356-4.218s0-2.851.356-4.218a2.167 2.167 0 011.51-1.549c1.33-.366 6.667-.366 6.667-.366s5.337 0 6.668.366z" fill="#fff"/><path fill-rule="evenodd" clip-rule="evenodd" d="M14.4 19.2v-5.334l4.267 2.667-4.267 2.666z" fill="#fff"/></svg>